<?xml version="1.0" encoding="UTF-8" standalone="no"?>
<!-- Created with Inkscape (http://www.inkscape.org/) -->
<svg
   xmlns:dc="http://purl.org/dc/elements/1.1/"
   xmlns:cc="http://web.resource.org/cc/"
   xmlns:rdf="http://www.w3.org/1999/02/22-rdf-syntax-ns#"
   xmlns:svg="http://www.w3.org/2000/svg"
   xmlns="http://www.w3.org/2000/svg"
   xmlns:xlink="http://www.w3.org/1999/xlink"
   xmlns:sodipodi="http://sodipodi.sourceforge.net/DTD/sodipodi-0.dtd"
   xmlns:inkscape="http://www.inkscape.org/namespaces/inkscape"
   version="1.0"
   width="600"
   height="660"
   id="svg2"
   sodipodi:version="0.32"
   inkscape:version="0.45.1"
   sodipodi:docname="Blason_Nantes.svg"
   inkscape:output_extension="org.inkscape.output.svg.inkscape"
   sodipodi:docbase="C:\Documents and Settings\Administrateur\Bureau">
  <metadata
     id="metadata123">
    <rdf:RDF>
      <cc:Work
         rdf:about="">
        <dc:format>image/svg+xml</dc:format>
        <dc:type
           rdf:resource="http://purl.org/dc/dcmitype/StillImage" />
      </cc:Work>
    </rdf:RDF>
  </metadata>
  <sodipodi:namedview
     inkscape:window-height="952"
     inkscape:window-width="1280"
     inkscape:pageshadow="2"
     inkscape:pageopacity="0.0"
     guidetolerance="10.0"
     gridtolerance="10.0"
     objecttolerance="10.0"
     borderopacity="1.0"
     bordercolor="#666666"
     pagecolor="#ffffff"
     id="base"
     inkscape:zoom="1.1454545"
     inkscape:cx="472.58917"
     inkscape:cy="327.32041"
     inkscape:window-x="-4"
     inkscape:window-y="-4"
     inkscape:current-layer="svg2" />
  <desc
     id="desc4">Flag of Canton of Valais (Wallis)</desc>
  <defs
     id="defs6">
    <linearGradient
       id="linearGradient2893">
      <stop
         style="stop-color:#ffffff;stop-opacity:0.3137255"
         offset="0"
         id="stop2895" />
      <stop
         style="stop-color:#ffffff;stop-opacity:0.25098041"
         offset="0.19"
         id="stop2897" />
      <stop
         style="stop-color:#6b6b6b;stop-opacity:0.1254902"
         offset="0.60000002"
         id="stop2901" />
      <stop
         style="stop-color:#000000;stop-opacity:0.1254902"
         offset="1"
         id="stop2899" />
    </linearGradient>
    <linearGradient
       id="linearGradient2885">
      <stop
         style="stop-color:#ffffff;stop-opacity:1"
         offset="0"
         id="stop2887" />
      <stop
         style="stop-color:#ffffff;stop-opacity:1"
         offset="0.22857143"
         id="stop2891" />
      <stop
         style="stop-color:#000000;stop-opacity:1"
         offset="1"
         id="stop2889" />
    </linearGradient>
    <linearGradient
       id="linearGradient2955">
      <stop
         style="stop-color:#fd0000;stop-opacity:1"
         offset="0"
         id="stop2867" />
      <stop
         style="stop-color:#e77275;stop-opacity:0.65882355"
         offset="0.5"
         id="stop2873" />
      <stop
         style="stop-color:#000000;stop-opacity:0.32291666"
         offset="1"
         id="stop2959" />
    </linearGradient>
    <radialGradient
       cx="225.52438"
       cy="218.90099"
       r="300"
       fx="225.52438"
       fy="218.90099"
       id="radialGradient2961"
       xlink:href="#linearGradient2955"
       gradientUnits="userSpaceOnUse"
       gradientTransform="matrix(-4.167939e-4,2.182867,-1.884232,-3.599562e-4,615.5972,-289.1214)" />
    <polygon
       points="0,-1 0.58778525,0.80901699 -0.95105652,-0.30901699 0.95105652,-0.30901699 -0.58778525,0.80901699 0,-1 "
       transform="scale(53,53)"
       id="star" />
    <clipPath
       id="clip">
      <path
         d="M 0,-200 L 0,600 L 300,600 L 300,-200 L 0,-200 z "
         id="path10" />
    </clipPath>
    <radialGradient
       cx="225.52438"
       cy="218.90099"
       r="300"
       fx="225.52438"
       fy="218.90099"
       id="radialGradient1911"
       xlink:href="#linearGradient2955"
       gradientUnits="userSpaceOnUse"
       gradientTransform="matrix(-4.167939e-4,2.182867,-1.884232,-3.599562e-4,615.5972,-289.1214)" />
    <radialGradient
       cx="225.52438"
       cy="218.90099"
       r="300"
       fx="225.52438"
       fy="218.90099"
       id="radialGradient2865"
       xlink:href="#linearGradient2955"
       gradientUnits="userSpaceOnUse"
       gradientTransform="matrix(0,1.748721,-1.593162,-1.049767e-7,551.7876,-191.2898)" />
    <radialGradient
       cx="225.52438"
       cy="218.90099"
       r="300"
       fx="225.52438"
       fy="218.90099"
       id="radialGradient2871"
       xlink:href="#linearGradient2955"
       gradientUnits="userSpaceOnUse"
       gradientTransform="matrix(0,1.386237,-1.323286,-5.741131e-8,-158.0823,-109.5408)" />
    <radialGradient
       cx="221.44487"
       cy="226.33101"
       r="300"
       fx="221.44487"
       fy="226.33101"
       id="radialGradient3163"
       xlink:href="#linearGradient2893"
       gradientUnits="userSpaceOnUse"
       gradientTransform="matrix(1.353218,0,0,1.348928,-77.62935,-85.74693)" />
    <radialGradient
       cx="225.52438"
       cy="218.90099"
       r="300"
       fx="225.52438"
       fy="218.90099"
       id="radialGradient2249"
       xlink:href="#linearGradient2955"
       gradientUnits="userSpaceOnUse"
       gradientTransform="matrix(0,1.386237,-1.323286,-5.741131e-8,-158.0823,-109.5408)" />
    <radialGradient
       cx="225.52438"
       cy="218.90099"
       r="300"
       fx="225.52438"
       fy="218.90099"
       id="radialGradient2247"
       xlink:href="#linearGradient2955"
       gradientUnits="userSpaceOnUse"
       gradientTransform="matrix(0,1.748721,-1.593162,-1.049767e-7,551.7876,-191.2898)" />
    <radialGradient
       cx="225.52438"
       cy="218.90099"
       r="300"
       fx="225.52438"
       fy="218.90099"
       id="radialGradient2245"
       xlink:href="#linearGradient2955"
       gradientUnits="userSpaceOnUse"
       gradientTransform="matrix(-4.167939e-4,2.182867,-1.884232,-3.599562e-4,615.5972,-289.1214)" />
    <clipPath
       id="clipPath2241">
      <path
         d="M 0,-200 L 0,600 L 300,600 L 300,-200 L 0,-200 z "
         id="path2243" />
    </clipPath>
    <polygon
       points="0,-1 0.58778525,0.80901699 -0.95105652,-0.30901699 0.95105652,-0.30901699 -0.58778525,0.80901699 0,-1 "
       transform="scale(53,53)"
       id="polygon2239" />
    <radialGradient
       cx="225.52438"
       cy="218.90099"
       r="300"
       fx="225.52438"
       fy="218.90099"
       id="radialGradient2237"
       xlink:href="#linearGradient2955"
       gradientUnits="userSpaceOnUse"
       gradientTransform="matrix(-4.167939e-4,2.182867,-1.884232,-3.599562e-4,615.5972,-289.1214)" />
    <linearGradient
       id="linearGradient2229">
      <stop
         style="stop-color:#fd0000;stop-opacity:1"
         offset="0"
         id="stop2231" />
      <stop
         style="stop-color:#e77275;stop-opacity:0.65882355"
         offset="0.5"
         id="stop2233" />
      <stop
         style="stop-color:#000000;stop-opacity:0.32291666"
         offset="1"
         id="stop2235" />
    </linearGradient>
    <linearGradient
       id="linearGradient2221">
      <stop
         style="stop-color:#ffffff;stop-opacity:1"
         offset="0"
         id="stop2223" />
      <stop
         style="stop-color:#ffffff;stop-opacity:1"
         offset="0.22857143"
         id="stop2225" />
      <stop
         style="stop-color:#000000;stop-opacity:1"
         offset="1"
         id="stop2227" />
    </linearGradient>
    <linearGradient
       id="linearGradient2211">
      <stop
         style="stop-color:#ffffff;stop-opacity:0.3137255"
         offset="0"
         id="stop2213" />
      <stop
         style="stop-color:#ffffff;stop-opacity:0.25098041"
         offset="0.19"
         id="stop2215" />
      <stop
         style="stop-color:#6b6b6b;stop-opacity:0.1254902"
         offset="0.60000002"
         id="stop2217" />
      <stop
         style="stop-color:#000000;stop-opacity:0.1254902"
         offset="1"
         id="stop2219" />
    </linearGradient>
    <radialGradient
       cx="221.44487"
       cy="226.33101"
       r="300"
       fx="221.44487"
       fy="226.33101"
       id="radialGradient2272"
       xlink:href="#linearGradient2893"
       gradientUnits="userSpaceOnUse"
       gradientTransform="matrix(1.353218,0,0,1.348928,-79.12935,-84.246927)" />
    <radialGradient
       cx="221.44487"
       cy="226.33101"
       r="300"
       fx="221.44487"
       fy="226.33101"
       id="radialGradient2345"
       xlink:href="#linearGradient2893"
       gradientUnits="userSpaceOnUse"
       gradientTransform="matrix(1.353218,0,0,1.348928,-79.12935,-84.246927)" />
    <radialGradient
       inkscape:collect="always"
       xlink:href="#linearGradient2893"
       id="radialGradient2348"
       gradientUnits="userSpaceOnUse"
       gradientTransform="matrix(1.353218,0,0,1.348928,-79.12935,-84.246927)"
       cx="221.44487"
       cy="226.33101"
       fx="221.44487"
       fy="226.33101"
       r="300" />
    <radialGradient
       inkscape:collect="always"
       xlink:href="#linearGradient2893"
       id="radialGradient2351"
       gradientUnits="userSpaceOnUse"
       gradientTransform="matrix(1.353218,0,0,1.348928,-79.12935,-84.246927)"
       cx="221.44487"
       cy="226.33101"
       fx="221.44487"
       fy="226.33101"
       r="300" />
    <radialGradient
       inkscape:collect="always"
       xlink:href="#linearGradient2893"
       id="radialGradient2276"
       gradientUnits="userSpaceOnUse"
       gradientTransform="matrix(1.353218,0,0,1.348928,-79.12935,-84.246927)"
       cx="221.44487"
       cy="226.33101"
       fx="221.44487"
       fy="226.33101"
       r="300" />
  </defs>
  <g
     id="g2489">
    <path
       id="path2855"
       style="fill:#e20909;fill-opacity:1;fill-rule:evenodd;stroke:none;stroke-width:1px;stroke-linecap:butt;stroke-linejoin:miter;stroke-opacity:1;display:inline"
       d="M 299.42575,659 C 299.42575,659 597.92576,546.67969 597.92576,261.22817 C 597.92576,-24.223358 597.92576,2.6764721 597.92576,2.6764721 L 0.9257513,2.6764721 L 0.9257513,261.22817 C 0.9257513,546.67969 299.42575,659 299.42575,659 z " />
    <g
       id="g2438">
      <g
         id="g3250">
        <path
           id="path2265"
           style="fill:none;fill-rule:evenodd;stroke:#000000;stroke-width:2.79999995;stroke-linecap:butt;stroke-linejoin:miter;stroke-miterlimit:4;stroke-dasharray:none;stroke-opacity:1"
           d="M 315.87302,247.30159 C 392.06349,433.80952 392.06349,433.80952 392.06349,433.80952" />
        <path
           id="path2267"
           style="fill:none;fill-rule:evenodd;stroke:#000000;stroke-width:2.79999995;stroke-linecap:butt;stroke-linejoin:miter;stroke-miterlimit:4;stroke-dasharray:none;stroke-opacity:1"
           d="M 319.84127,270.31746 C 373.80953,443.33333 373.80953,443.33333 373.80953,443.33333" />
        <path
           id="path2269"
           style="fill:none;fill-rule:evenodd;stroke:#000000;stroke-width:2.79999995;stroke-linecap:butt;stroke-linejoin:miter;stroke-miterlimit:4;stroke-dasharray:none;stroke-opacity:1"
           d="M 356.34921,448.88889 C 356.34921,448.88889 356.34921,448.88889 307.14286,359.20635 C 341.26984,447.30159 341.26984,447.30159 341.26984,447.30159" />
        <path
           id="path2271"
           style="fill:none;fill-rule:evenodd;stroke:#000000;stroke-width:2.79999995;stroke-linecap:butt;stroke-linejoin:miter;stroke-miterlimit:4;stroke-dasharray:none;stroke-opacity:1"
           d="M 501.5873,375.87301 C 501.5873,375.87301 501.5873,375.87301 453.96826,252.06349 C 483.33334,376.66667 483.33334,376.66667 483.33334,376.66667" />
        <path
           id="path2273"
           style="fill:none;fill-rule:evenodd;stroke:#000000;stroke-width:2.79999995;stroke-linecap:butt;stroke-linejoin:miter;stroke-miterlimit:4;stroke-dasharray:none;stroke-opacity:1"
           d="M 169.04762,243.33333 C 222.22222,452.06349 222.22222,452.06349 222.22222,452.06349" />
        <path
           id="path2275"
           style="fill:none;fill-rule:evenodd;stroke:#000000;stroke-width:2.79999995;stroke-linecap:butt;stroke-linejoin:miter;stroke-miterlimit:4;stroke-dasharray:none;stroke-opacity:1"
           d="M 165.87302,244.12698 C 206.34921,444.12698 206.34921,444.12698 206.34921,444.12698" />
        <path
           id="path2277"
           style="fill:none;fill-rule:evenodd;stroke:#000000;stroke-width:2.79999995;stroke-linecap:butt;stroke-linejoin:miter;stroke-miterlimit:4;stroke-dasharray:none;stroke-opacity:1"
           d="M 191.26984,431.42857 C 191.26984,431.42857 191.26984,431.42857 169.04762,334.60317 C 183.33333,427.46032 183.33333,427.46032 183.33333,427.46032" />
      </g>
      <path
         d="M 399.66421,207.42342 C 420.78914,205.65772 444.28881,206.28446 457.68395,203.58797 C 461.00744,205.19483 457.87879,219.40252 457.27957,222.5451 C 455.02577,224.9871 424.78972,216.08617 399.66421,207.42342 z "
         style="fill:#fcef3c;fill-opacity:1;fill-rule:evenodd;stroke:#000000;stroke-width:3;stroke-linecap:butt;stroke-linejoin:miter;stroke-miterlimit:4;stroke-dasharray:none;stroke-opacity:1;display:inline"
         id="path24450" />
      <path
         d="M 450.43263,200.76056 L 450.43263,461.48487 L 460.14612,461.48487 L 460.14612,200.76056 L 450.43263,200.76056 z "
         style="fill:#fcef3c;fill-opacity:1;fill-rule:evenodd;stroke:#000000;stroke-width:3;stroke-linecap:butt;stroke-linejoin:miter;stroke-miterlimit:4;stroke-dasharray:none;stroke-opacity:1;display:inline"
         id="path15633" />
      <g
         transform="translate(-322.22222,760.31747)"
         id="g30401">
        <path
           d="M 730.78412,-529.18569 C 706.61691,-495.9845 720.55171,-390.48285 785.40283,-381.77655 C 773.21059,-415.59897 779.11013,-449.90277 827.52033,-482.72298 L 730.78412,-529.18569 z "
           style="fill:#ffffff;fill-opacity:1;fill-rule:evenodd;stroke:#000000;stroke-width:3;stroke-linecap:butt;stroke-linejoin:miter;stroke-miterlimit:4;stroke-dasharray:none;stroke-opacity:1;display:inline"
           id="path30008" />
        <path
           d="M 746.33334,-523.03869 C 740.08771,-515.34377 733.61449,-510.38213 727.55209,-507.16369 C 729.7659,-506.90493 732.665,-507.62141 735.42709,-508.16369 C 732.81293,-505.69145 730.38701,-503.62272 727.92709,-501.50744 C 728.82952,-501.45984 732.45502,-503.08367 737.52084,-505.60119 C 735.69028,-499.92179 733.74441,-493.47563 733.20834,-489.31994 C 735.64842,-492.64584 738.92621,-498.46915 742.02084,-503.78869 C 742.95773,-500.40704 743.81015,-497.02818 745.61459,-493.69494 L 745.52084,-504.00744 C 746.90386,-501.76451 748.28441,-498.9706 750.05209,-497.28869 C 748.12923,-504.22746 747.30385,-512.1994 748.80209,-521.85119 L 746.33334,-523.03869 z M 787.11459,-503.44494 C 781.23927,-496.56441 775.19743,-492.05231 769.52084,-489.03869 C 771.73465,-488.77992 774.665,-489.49641 777.42709,-490.03869 C 774.81293,-487.56644 772.35576,-485.46647 769.89584,-483.35119 C 770.79826,-483.30358 774.42377,-484.92742 779.48959,-487.44494 C 777.65903,-481.76553 775.71316,-475.31938 775.17709,-471.16369 C 777.61717,-474.48958 780.89496,-480.34415 783.98959,-485.66369 C 784.92648,-482.28203 785.7789,-478.90318 787.58334,-475.56994 L 787.48959,-485.85119 C 788.87263,-483.60825 790.28441,-480.8456 792.05209,-479.16369 C 790.25728,-485.64041 789.40658,-493.01681 790.52084,-501.81994 L 787.11459,-503.44494 z M 719.70834,-498.06994 C 719.6273,-498.07172 719.54226,-498.04484 719.45834,-498.03869 C 719.23504,-495.78062 719.08635,-493.4498 718.98959,-491.10119 C 719.98965,-490.993 721.23327,-491.35223 722.67709,-492.47619 C 723.18194,-493.05693 725.25231,-489.58276 728.86459,-493.38244 C 724.04772,-491.07313 723.11985,-497.99514 719.70834,-498.06994 z M 761.39584,-493.91369 C 762.87636,-487.50798 752.01701,-489.90721 755.42709,-482.97619 C 757.0542,-480.42009 763.88691,-481.46808 760.95834,-487.66369 C 760.5017,-488.28307 764.31601,-489.55953 761.39584,-493.91369 z M 742.55209,-487.41369 C 742.26045,-482.17908 746.2228,-483.02309 746.14584,-482.25744 C 746.78599,-475.43452 753.17462,-477.97892 753.27084,-481.00744 C 752.66988,-488.70851 744.545,-481.14843 742.55209,-487.41369 z M 761.27084,-479.91369 C 760.57638,-479.82246 759.774,-479.45118 758.83334,-478.69494 C 756.69374,-476.54944 759.23828,-470.11036 764.64584,-474.31994 C 765.15068,-474.90068 767.22106,-471.45776 770.83334,-475.25744 C 765.8312,-472.8593 765.02091,-480.40632 761.27084,-479.91369 z M 755.89584,-478.85119 C 748.56627,-468.28268 740.68724,-461.9555 733.42709,-458.10119 C 735.6409,-457.84242 738.57125,-458.55891 741.33334,-459.10119 C 738.71918,-456.62894 736.26201,-454.52897 733.80209,-452.41369 C 734.70451,-452.36608 738.36127,-454.02117 743.42709,-456.53869 C 741.59653,-450.85928 739.65066,-444.41313 739.11459,-440.25744 C 741.55467,-443.58335 744.80121,-449.40665 747.89584,-454.72619 C 748.83273,-451.34454 749.7164,-447.96568 751.52084,-444.63244 L 751.39584,-454.91369 C 752.77886,-452.67075 754.19066,-449.9081 755.95834,-448.22619 C 753.64743,-456.56524 752.90592,-466.40594 755.89584,-478.85119 z M 803.36459,-475.78869 C 804.84511,-469.38299 793.98576,-471.75096 797.39584,-464.81994 C 798.2492,-463.47935 800.52836,-463.1671 802.08334,-464.03869 C 802.49628,-464.46928 802.90784,-464.88972 803.33334,-465.31994 C 803.80422,-466.29679 803.8044,-467.68268 802.92709,-469.53869 C 802.47044,-470.15805 806.28476,-471.43453 803.36459,-475.78869 z M 784.52084,-469.25744 C 784.2292,-464.02283 788.19155,-464.8981 788.11459,-464.13244 C 788.75474,-457.30952 795.17463,-459.85393 795.27084,-462.88244 C 794.66988,-470.58351 786.51375,-462.99219 784.52084,-469.25744 z M 724.45834,-461.41369 C 725.06806,-458.77567 723.58221,-457.64938 721.86459,-456.72619 C 722.33807,-454.4126 722.83819,-452.11372 723.42709,-449.81994 C 724.66603,-450.68085 725.32279,-452.40931 724.02084,-455.16369 C 723.56419,-455.78306 727.37851,-457.05953 724.45834,-461.41369 z M 797.86459,-460.69494 C 790.53501,-450.12644 782.65599,-443.79925 775.39584,-439.94494 C 777.60965,-439.68617 780.54,-440.40266 783.30209,-440.94494 C 780.68793,-438.47271 778.23076,-436.40397 775.77084,-434.28869 C 776.60317,-434.24479 779.84182,-435.65988 784.30209,-437.85119 C 787.25825,-444.91521 791.5851,-451.9487 797.48959,-458.94494 C 797.61454,-459.52177 797.72323,-460.10655 797.86459,-460.69494 z M 724.33334,-447.41369 C 724.25339,-447.40319 724.16602,-447.36917 724.08334,-447.35119 C 724.68872,-445.1602 725.37013,-443.00421 726.08334,-440.85119 C 726.59155,-441.07631 727.13292,-441.372 727.70834,-441.81994 C 728.21318,-442.40069 730.28356,-438.95776 733.89584,-442.75744 C 728.8937,-440.3593 728.08341,-447.90632 724.33334,-447.41369 z M 766.42709,-443.28869 C 767.90762,-436.88299 757.04826,-439.25096 760.45834,-432.31994 C 762.08544,-429.76385 768.91816,-430.84308 765.98959,-437.03869 C 765.53296,-437.65806 769.34726,-438.93453 766.42709,-443.28869 z M 747.58334,-436.75744 C 747.2917,-431.52283 751.25405,-432.39809 751.17709,-431.63244 C 751.81724,-424.80952 758.23713,-427.35393 758.33334,-430.38244 C 757.73238,-438.08351 749.57626,-430.49219 747.58334,-436.75744 z M 766.70834,-429.28869 C 765.92107,-429.30595 765.02463,-428.94617 763.89584,-428.03869 C 761.75624,-425.89319 764.26953,-419.48536 769.67709,-423.69494 C 770.18192,-424.27568 772.28356,-420.80151 775.89584,-424.60119 C 771.07897,-422.29187 770.11985,-429.21389 766.70834,-429.28869 z M 760.92709,-428.19494 C 754.78948,-419.34514 748.27467,-413.47719 742.05209,-409.53869 C 742.4804,-408.97463 742.92394,-408.43329 743.36459,-407.88244 C 744.35958,-408.06965 745.37116,-408.2499 746.36459,-408.44494 C 745.69962,-407.81607 745.04227,-407.2184 744.39584,-406.63244 C 744.93953,-405.97985 745.49029,-405.32688 746.05209,-404.69494 C 746.82745,-405.06955 747.59305,-405.45243 748.45834,-405.88244 C 748.15855,-404.95232 747.85123,-403.99656 747.55209,-403.03869 C 748.53735,-401.99313 749.54497,-400.98721 750.58334,-400.00744 C 751.37887,-401.38245 752.13722,-402.74344 752.92709,-404.10119 C 753.71813,-401.24594 754.50453,-398.39692 755.80209,-395.56994 C 756.04909,-395.37989 756.30249,-395.19385 756.55209,-395.00744 L 756.45834,-404.28869 C 757.84137,-402.04576 759.22191,-399.25185 760.98959,-397.56994 C 758.67869,-405.909 757.93717,-415.74969 760.92709,-428.19494 z M 772.33334,-394.22619 C 773.19472,-390.49935 769.86711,-389.72722 767.61459,-388.38244 C 769.16681,-387.6696 770.76523,-387.02697 772.39584,-386.44494 C 772.27904,-386.91422 772.12388,-387.42765 771.86459,-387.97619 C 771.40794,-388.59557 775.25351,-389.87203 772.33334,-394.22619 z M 782.36459,-390.41369 C 781.72541,-390.04055 781.08893,-389.65471 780.45834,-389.31994 C 781.14056,-389.24019 781.8853,-389.24763 782.67709,-389.31994 C 782.56915,-389.6845 782.46798,-390.04904 782.36459,-390.41369 z M 783.70834,-386.13244 C 782.90102,-385.42977 782.10335,-384.72733 781.30209,-384.03869 C 781.52977,-383.99549 781.76059,-383.95444 781.98959,-383.91369 C 782.5607,-384.108 783.30102,-384.4065 784.17709,-384.78869 C 784.02237,-385.23521 783.8566,-385.68577 783.70834,-386.13244 z "
           style="fill:#000000;fill-opacity:1;fill-rule:evenodd;stroke:#000000;stroke-width:0.53952593;stroke-linecap:round;stroke-linejoin:round;stroke-miterlimit:4;stroke-opacity:1"
           id="path30084" />
      </g>
      <path
         d="M 401.0474,234.50393 L 504.62385,281.90218 L 512.40897,275.16783 L 406.27132,226.08599 L 401.0474,234.50393 z "
         style="fill:#fcef3c;fill-opacity:1;fill-rule:evenodd;stroke:#000000;stroke-width:3;stroke-linecap:butt;stroke-linejoin:miter;stroke-miterlimit:4;stroke-dasharray:none;stroke-opacity:1;display:inline"
         id="path18553" />
      <g
         id="g31386"
         transform="translate(136.50794,673.01588)">
        <path
           id="path20520"
           style="fill:#fcef3c;fill-opacity:1;fill-rule:evenodd;stroke:#000000;stroke-width:3;stroke-linecap:butt;stroke-linejoin:miter;stroke-miterlimit:4;stroke-dasharray:none;stroke-opacity:1"
           d="M -25.231624,-467.03985 C -4.1066912,-468.80555 17.805679,-468.17881 31.200819,-470.8753 C 34.524309,-469.26844 32.982959,-455.06075 32.383739,-451.91817 C 30.129939,-449.47617 -0.10611125,-458.3771 -25.231624,-467.03985 z " />
        <path
           id="path15631"
           style="fill:#fcef3c;fill-opacity:1;fill-rule:evenodd;stroke:#000000;stroke-width:3;stroke-linecap:butt;stroke-linejoin:miter;stroke-miterlimit:4;stroke-dasharray:none;stroke-opacity:1;display:inline"
           d="M 26.592409,-473.93892 L 26.592409,-213.21461 L 36.305899,-213.21461 L 36.305899,-473.93892 L 26.592409,-473.93892 z " />
        <g
           id="g30413"
           transform="translate(-633.33334,371.42858)">
          <path
             id="path30002"
             style="fill:#ffffff;fill-opacity:1;fill-rule:evenodd;stroke:#000000;stroke-width:3;stroke-linecap:butt;stroke-linejoin:miter;stroke-miterlimit:4;stroke-dasharray:none;stroke-opacity:1;display:inline"
             d="M 593.89101,-742.6679 C 569.72379,-709.46671 599.37208,-621.92333 664.22319,-613.21703 C 652.03096,-647.03945 642.21697,-663.38498 690.62726,-696.20519 L 593.89101,-742.6679 z " />
          <path
             id="path30264"
             style="fill:#000000;fill-opacity:1;fill-rule:evenodd;stroke:#000000;stroke-width:0.53952593;stroke-linecap:round;stroke-linejoin:round;stroke-miterlimit:4;stroke-opacity:1"
             d="M 595.49604,-740.85764 C 595.96287,-737.27385 599.09598,-737.88477 599.02729,-737.20139 C 599.6541,-730.52061 605.80541,-732.82159 606.15229,-735.76389 L 597.27729,-740.01389 C 597.20094,-740.05068 597.13219,-740.09577 597.05854,-740.13889 L 595.49604,-740.85764 z M 608.77729,-733.76389 C 601.44771,-723.19538 593.56869,-716.89945 586.30854,-713.04514 C 588.52234,-712.78635 591.4527,-713.50286 594.21479,-714.04514 C 591.60063,-711.57287 589.14345,-709.47292 586.68354,-707.35764 C 587.58595,-707.31003 591.24272,-708.96512 596.30854,-711.48264 C 594.47798,-705.80321 592.5321,-699.35708 591.99604,-695.20139 C 594.43612,-698.52729 597.68266,-704.3506 600.77729,-709.67014 C 601.71418,-706.28846 602.59784,-702.90963 604.40229,-699.57639 L 604.30854,-709.85764 C 605.69157,-707.61474 607.0721,-704.85205 608.83979,-703.17014 C 606.52888,-711.50923 605.78737,-721.31864 608.77729,-733.76389 z M 611.40229,-733.23264 C 609.8652,-730.80162 612.41924,-725.28746 617.52729,-729.26389 C 617.90211,-729.69509 619.15209,-727.91154 621.24604,-728.51389 L 611.40229,-733.23264 z M 640.99604,-719.01389 C 641.50844,-713.73384 645.49059,-714.12908 647.27729,-715.98264 L 640.99604,-719.01389 z M 650.08979,-714.67014 C 642.95699,-704.68744 635.34181,-698.62275 628.30854,-694.88889 C 630.52235,-694.63011 633.42145,-695.34661 636.18354,-695.88889 C 633.56938,-693.41666 631.14345,-691.34792 628.68354,-689.23264 C 629.58595,-689.18505 633.21147,-690.80887 638.27729,-693.32639 C 636.44673,-687.64697 634.50085,-681.20083 633.96479,-677.04514 C 636.40487,-680.37105 639.68266,-686.2256 642.77729,-691.54514 C 643.71419,-688.16347 644.56659,-684.75338 646.37104,-681.42014 L 646.27729,-691.73264 C 647.66033,-689.48972 649.04086,-686.6958 650.80854,-685.01389 C 648.57192,-693.08491 647.83164,-702.56758 650.49604,-714.45139 L 650.08979,-714.67014 z M 652.96479,-713.26389 C 653.04205,-710.94035 655.12813,-708.40151 658.65229,-710.54514 L 652.96479,-713.26389 z M 683.58979,-698.57639 C 684.4473,-696.76143 686.01308,-696.35092 687.40229,-696.73264 L 683.58979,-698.57639 z M 619.33979,-698.23264 C 620.82032,-691.82695 609.92971,-694.19491 613.33979,-687.26389 C 614.96688,-684.7078 621.79961,-685.78703 618.87104,-691.98264 C 618.4144,-692.602 622.25996,-693.87848 619.33979,-698.23264 z M 586.80854,-697.70139 C 585.89638,-697.26408 585.11064,-697.14927 584.43354,-697.26389 C 584.49808,-696.87905 584.58299,-696.49349 584.65229,-696.10764 C 585.29674,-696.36207 586.01623,-696.86798 586.80854,-697.70139 z M 600.49604,-691.70139 C 600.2044,-686.46678 604.1355,-687.3108 604.05854,-686.54514 C 604.69869,-679.72222 611.11858,-682.29789 611.21479,-685.32639 C 610.61382,-693.02746 602.48895,-685.43614 600.49604,-691.70139 z M 619.62104,-684.23264 C 618.83376,-684.2499 617.90608,-683.89012 616.77729,-682.98264 C 614.63768,-680.83713 617.18223,-674.42931 622.58979,-678.63889 C 623.09463,-679.21964 625.165,-675.74546 628.77729,-679.54514 C 623.96041,-677.23583 623.03255,-684.15784 619.62104,-684.23264 z M 613.83979,-683.13889 C 607.82119,-674.46068 601.42168,-668.63739 595.30854,-664.70139 C 595.62798,-664.07465 595.9458,-663.44861 596.27729,-662.82639 C 597.26807,-663.01304 598.25698,-663.19471 599.24604,-663.38889 C 598.50722,-662.69019 597.80611,-662.03555 597.08979,-661.38889 C 597.09423,-661.38083 597.08534,-661.3657 597.08979,-661.35764 C 597.46418,-660.67886 597.85726,-659.99878 598.24604,-659.32639 C 599.20982,-659.78714 600.22309,-660.27143 601.33979,-660.82639 C 600.87524,-659.3851 600.38773,-657.91034 599.93354,-656.42014 C 600.67157,-655.22635 601.46199,-654.05667 602.24604,-652.88889 C 603.43137,-654.91811 604.64819,-656.99683 605.83979,-659.04514 C 606.77668,-655.66347 607.62909,-652.25338 609.43354,-648.92014 L 609.33979,-659.23264 C 610.72282,-656.98972 612.10335,-654.1958 613.87104,-652.51389 C 611.56013,-660.85296 610.84987,-670.69364 613.83979,-683.13889 z M 661.30854,-680.07639 C 662.78907,-673.67068 651.92971,-676.03866 655.33979,-669.10764 C 655.74656,-668.46861 656.48599,-668.08211 657.30854,-667.92014 C 658.38814,-669.65241 659.63001,-671.41084 661.08979,-673.20139 C 661.00939,-673.40966 660.94438,-673.60512 660.83979,-673.82639 C 660.38314,-674.44577 664.22871,-675.72223 661.30854,-680.07639 z M 642.46479,-673.57639 C 642.17315,-668.34178 646.10425,-669.18581 646.02729,-668.42014 C 646.66744,-661.59722 653.08734,-664.14162 653.18354,-667.17014 C 652.58258,-674.87121 644.45771,-667.31115 642.46479,-673.57639 z M 655.21479,-664.13889 C 648.05773,-654.08573 640.40077,-648.01247 633.33979,-644.26389 C 635.5536,-644.00512 638.48395,-644.72161 641.24604,-645.26389 C 638.63188,-642.79164 636.1747,-640.69167 633.71479,-638.57639 C 634.6172,-638.52878 638.24272,-640.18387 643.30854,-642.70139 C 641.47798,-637.02198 639.5321,-630.57583 638.99604,-626.42014 C 641.43612,-629.74603 644.71391,-635.56935 647.80854,-640.88889 C 648.74544,-637.50723 649.62909,-634.12838 651.43354,-630.79514 L 651.30854,-641.07639 C 652.07623,-639.83139 652.84615,-638.43565 653.68354,-637.13889 C 651.19356,-646.69621 650.89769,-655.20299 655.21479,-664.13889 z M 625.21479,-649.17014 C 626.69532,-642.76443 615.83596,-645.13241 619.24604,-638.20139 C 620.87313,-635.64528 627.70586,-636.72453 624.77729,-642.92014 C 624.32065,-643.53952 628.13496,-644.81598 625.21479,-649.17014 z M 613.12104,-640.01389 C 612.88803,-640.00906 612.67278,-639.99679 612.43354,-639.98264 C 613.87836,-638.42323 615.38967,-636.913 616.93354,-635.45139 C 617.03606,-635.71018 617.08111,-635.99088 617.08979,-636.26389 C 616.82687,-639.63311 615.12217,-640.05536 613.12104,-640.01389 z M 625.08979,-635.13889 C 624.39533,-635.04766 623.59294,-634.67638 622.65229,-633.92014 C 621.95062,-633.21654 621.75565,-632.04915 621.99604,-630.95139 C 623.17091,-629.99178 624.39733,-629.10018 625.62104,-628.20139 C 626.45107,-628.31822 627.39688,-628.71382 628.46479,-629.54514 C 628.96963,-630.1259 631.04,-626.68296 634.65229,-630.48264 C 629.65014,-628.0845 628.83986,-635.63152 625.08979,-635.13889 z M 619.71479,-634.07639 C 619.54597,-633.83298 619.38417,-633.59657 619.21479,-633.35764 C 619.30865,-633.27447 619.40183,-633.19043 619.49604,-633.10764 C 619.56939,-633.43056 619.63635,-633.7499 619.71479,-634.07639 z M 648.37104,-624.48264 C 648.0794,-619.24803 652.0105,-620.12329 651.93354,-619.35764 C 652.57369,-612.53472 658.99359,-615.07913 659.08979,-618.10764 C 658.48883,-625.80871 650.36396,-618.21739 648.37104,-624.48264 z M 661.15229,-615.20139 C 660.7708,-614.66352 660.41144,-614.12313 660.02729,-613.60764 C 660.40021,-613.54857 660.77698,-613.47395 661.15229,-613.42014 C 661.23142,-613.80443 661.31587,-614.18695 661.40229,-614.57639 C 661.32204,-614.79733 661.23225,-614.98193 661.15229,-615.20139 z " />
        </g>
        <g
           id="g30405"
           transform="translate(-557.14286,122.22222)">
          <path
             id="path30000"
             style="fill:#ffffff;fill-opacity:1;fill-rule:evenodd;stroke:#000000;stroke-width:3;stroke-linecap:butt;stroke-linejoin:miter;stroke-miterlimit:4;stroke-dasharray:none;stroke-opacity:1;display:inline"
             d="M 544.20042,-578.36082 C 518.57895,-546.26855 544.30011,-457.49195 608.69927,-445.90689 C 598.02502,-480.23861 588.94852,-497.00488 638.77207,-527.63716 L 544.20042,-578.36082 z " />
          <path
             id="path30130"
             style="fill:#000000;fill-opacity:1;fill-rule:evenodd;stroke:#000000;stroke-width:0.53952593;stroke-linecap:round;stroke-linejoin:round;stroke-miterlimit:4;stroke-opacity:1"
             d="M 546.33334,-578.50744 C 544.98058,-577.56965 544.23132,-576.28465 545.52084,-573.66369 C 546.86092,-571.55847 551.73286,-571.91716 551.77084,-575.56994 L 546.33334,-578.50744 z M 540.30209,-575.47619 C 539.24914,-573.6363 538.29101,-571.67735 537.48959,-569.60119 C 539.54545,-567.38205 543.32227,-569.41042 543.39584,-571.72619 C 543.17194,-574.59532 541.90971,-575.34293 540.30209,-575.47619 z M 551.77084,-570.63244 C 550.98356,-570.6497 550.08713,-570.28992 548.95834,-569.38244 C 546.81873,-567.23694 549.33203,-560.82911 554.73959,-565.03869 C 555.24443,-565.61943 557.34605,-562.14526 560.95834,-565.94494 C 556.14146,-563.63562 555.18235,-570.55764 551.77084,-570.63244 z M 546.02084,-569.53869 C 542.18355,-564.00571 538.17966,-559.65478 534.20834,-556.19494 C 533.48599,-550.60985 533.42617,-544.63629 533.95834,-538.44494 C 535.29325,-540.71573 536.66792,-543.11934 538.02084,-545.44494 C 538.95773,-542.06329 539.81014,-538.65318 541.61459,-535.31994 L 541.52084,-545.63244 C 542.90387,-543.3895 544.2844,-540.5956 546.05209,-538.91369 C 543.74119,-547.25275 543.03092,-557.09344 546.02084,-569.53869 z M 566.52084,-567.66369 C 565.96604,-565.50285 565.51322,-563.51921 565.30209,-561.88244 C 566.22915,-563.14606 567.28517,-564.84086 568.39584,-566.66369 L 566.52084,-567.66369 z M 574.64584,-559.97619 C 574.3542,-554.74158 578.2853,-555.5856 578.20834,-554.81994 C 578.84849,-547.99702 585.26838,-550.54143 585.36459,-553.56994 C 584.76362,-561.27101 576.63875,-553.71094 574.64584,-559.97619 z M 587.05209,-556.66369 C 587.15942,-556.31548 587.3194,-555.94811 587.52084,-555.53869 C 588.22291,-554.43576 589.86641,-554.01385 591.30209,-554.38244 L 587.05209,-556.66369 z M 593.36459,-552.47619 C 592.67013,-552.38496 591.86774,-552.01368 590.92709,-551.25744 C 588.78748,-549.11193 591.33204,-542.67286 596.73959,-546.88244 C 597.24443,-547.46319 599.3148,-544.02026 602.92709,-547.81994 C 597.92494,-545.42181 597.11466,-552.96883 593.36459,-552.47619 z M 587.98959,-551.41369 C 580.66001,-540.84519 572.78099,-534.518 565.52084,-530.66369 C 567.73465,-530.40491 570.665,-531.12141 573.42709,-531.66369 C 570.81293,-529.19146 568.35575,-527.09147 565.89584,-524.97619 C 566.79825,-524.92859 570.42377,-526.58367 575.48959,-529.10119 C 573.65903,-523.42179 571.71315,-516.97563 571.17709,-512.81994 C 573.61717,-516.14585 576.89496,-521.96915 579.98959,-527.28869 C 580.92648,-523.90702 581.77889,-520.52818 583.58334,-517.19494 L 583.48959,-527.47619 C 584.87262,-525.23326 586.28441,-522.4706 588.05209,-520.78869 C 585.74119,-529.12776 584.99967,-538.96844 587.98959,-551.41369 z M 607.61459,-545.63244 C 607.48595,-544.95813 607.34701,-544.31673 607.27084,-543.72619 C 607.60579,-544.18275 607.96986,-544.71401 608.33334,-545.25744 L 607.61459,-545.63244 z M 616.61459,-540.78869 C 616.87239,-536.71271 620.27973,-537.40519 620.20834,-536.69494 C 620.82189,-530.15544 626.72669,-532.21969 627.30209,-535.06994 L 619.67709,-539.16369 C 618.7704,-539.28619 617.9511,-539.61175 617.33334,-540.41369 L 616.61459,-540.78869 z M 556.55209,-533.97619 C 558.03262,-527.57049 547.17326,-529.93846 550.58334,-523.00744 C 552.21043,-520.45135 559.01191,-521.53058 556.08334,-527.72619 C 555.6267,-528.34555 559.47226,-529.62203 556.55209,-533.97619 z M 629.95834,-533.25744 C 622.62877,-522.68893 614.74974,-516.36175 607.48959,-512.50744 C 609.7034,-512.24868 612.63375,-512.96516 615.39584,-513.50744 C 612.78167,-511.0352 610.3245,-508.96647 607.86459,-506.85119 C 608.17244,-506.83495 608.90968,-507.06978 609.80209,-507.41369 C 614.18283,-512.33096 620.19311,-517.45076 628.23959,-523.00744 C 628.53164,-526.22097 629.08618,-529.62716 629.95834,-533.25744 z M 632.42709,-532.31994 C 631.68418,-530.54996 632.63464,-527.7679 634.89584,-527.41369 C 635.90303,-528.05312 636.89839,-528.69951 637.95834,-529.35119 L 632.42709,-532.31994 z M 537.70834,-527.47619 C 537.4167,-522.24158 541.3478,-523.0856 541.27084,-522.31994 C 541.91099,-515.49702 548.33088,-518.04143 548.42709,-521.06994 C 547.82612,-528.77101 539.70125,-521.21094 537.70834,-527.47619 z M 556.83334,-519.97619 C 556.04606,-519.99345 555.11838,-519.66492 553.98959,-518.75744 C 551.84998,-516.61192 554.39453,-510.17286 559.80209,-514.38244 C 560.30693,-514.96319 562.3773,-511.52026 565.98959,-515.31994 C 561.17271,-513.01063 560.24485,-519.90139 556.83334,-519.97619 z M 551.05209,-518.88244 C 547.89627,-514.33208 544.63126,-510.59364 541.36459,-507.47619 C 543.92652,-500.97046 547.11293,-494.57537 550.89584,-488.53869 C 550.92166,-488.51225 550.93236,-488.47092 550.95834,-488.44494 C 551.0103,-488.39298 551.06198,-488.33875 551.11459,-488.28869 C 548.80369,-496.62775 548.06217,-506.43719 551.05209,-518.88244 z M 598.52084,-515.85119 C 600.00137,-509.4455 589.14201,-511.81346 592.55209,-504.88244 C 594.17918,-502.32633 601.01191,-503.40558 598.08334,-509.60119 C 597.6267,-510.22056 601.44101,-511.49703 598.52084,-515.85119 z M 579.67709,-509.31994 C 579.38545,-504.08533 583.3478,-504.92936 583.27084,-504.16369 C 583.91099,-497.34077 590.29963,-499.91644 590.39584,-502.94494 C 589.79487,-510.64601 581.67,-503.0547 579.67709,-509.31994 z M 598.80209,-501.85119 C 598.01481,-501.86845 597.08713,-501.50867 595.95834,-500.60119 C 593.81873,-498.45568 596.36329,-492.04786 601.77084,-496.25744 C 601.87474,-496.37697 602.06508,-496.28772 602.30209,-496.16369 C 602.59619,-496.82886 602.92392,-497.49666 603.27084,-498.16369 C 601.8182,-499.66994 600.69285,-501.80973 598.80209,-501.85119 z M 593.02084,-500.75744 C 585.69127,-490.18895 577.81224,-483.86175 570.55209,-480.00744 C 572.76589,-479.74867 575.69625,-480.46516 578.45834,-481.00744 C 575.84417,-478.53519 573.387,-476.46647 570.92709,-474.35119 C 571.8295,-474.3036 575.48627,-475.92742 580.55209,-478.44494 C 578.72153,-472.76552 576.77565,-466.31938 576.23959,-462.16369 C 578.67967,-465.4896 581.92621,-471.34415 585.02084,-476.66369 C 585.95773,-473.28203 586.84139,-469.87193 588.64584,-466.53869 L 588.52084,-476.85119 C 589.90387,-474.60827 591.31566,-471.81435 593.08334,-470.13244 C 590.77243,-478.47149 590.03092,-488.31219 593.02084,-500.75744 z M 562.42709,-484.91369 C 563.30468,-481.11666 559.86682,-480.40146 557.61459,-479.00744 C 559.01654,-477.23624 560.47037,-475.52339 561.98959,-473.85119 C 562.80978,-474.81803 563.06836,-476.38147 561.98959,-478.66369 C 561.53295,-479.28305 565.34726,-480.55953 562.42709,-484.91369 z M 571.89584,-466.25744 C 571.31545,-465.97919 570.78096,-465.82744 570.30209,-465.78869 C 570.48104,-465.6353 570.65314,-465.47192 570.83334,-465.31994 C 571.16388,-465.56608 571.53461,-465.87747 571.89584,-466.25744 z M 603.14584,-462.91369 C 600.68173,-460.96006 596.03202,-460.68793 598.42709,-455.81994 C 599.78537,-453.68613 604.77305,-454.08912 604.67709,-457.88244 C 604.14567,-459.58005 603.6217,-461.29649 603.14584,-462.91369 z M 585.58334,-460.25744 C 585.2917,-455.02283 589.2228,-455.86684 589.14584,-455.10119 C 589.20915,-454.42637 589.35624,-453.88241 589.52084,-453.38244 C 591.15332,-452.6343 592.82177,-451.95834 594.52084,-451.31994 C 595.52556,-451.89217 596.26967,-452.86192 596.30209,-453.88244 C 595.70112,-461.58351 587.57625,-453.99218 585.58334,-460.25744 z M 604.70834,-452.78869 C 603.92106,-452.80595 602.99338,-452.44617 601.86459,-451.53869 C 601.28268,-450.95518 601.07235,-450.04877 601.14584,-449.13244 C 603.3428,-448.52928 605.59999,-448.0142 607.89584,-447.60119 C 607.41129,-449.15966 606.99344,-450.51843 606.52084,-452.00744 C 605.97881,-452.45173 605.4012,-452.7735 604.70834,-452.78869 z M 598.92709,-451.69494 C 598.56351,-451.1707 598.16823,-450.66724 597.80209,-450.16369 C 598.04345,-450.08536 598.27821,-449.98977 598.52084,-449.91369 C 598.64773,-450.50064 598.7832,-451.09602 598.92709,-451.69494 z " />
        </g>
        <path
           id="path15635"
           style="fill:#fcef3c;fill-opacity:1;fill-rule:evenodd;stroke:#000000;stroke-width:3;stroke-linecap:butt;stroke-linejoin:miter;stroke-miterlimit:4;stroke-dasharray:none;stroke-opacity:1;display:inline"
           d="M -44.118273,-368.43409 L 57.458179,-317.03584 L 63.243299,-323.77019 L -38.89435,-376.85203 L -44.118273,-368.43409 z " />
        <path
           id="path18551"
           style="fill:#fcef3c;fill-opacity:1;fill-rule:evenodd;stroke:#000000;stroke-width:3;stroke-linecap:butt;stroke-linejoin:miter;stroke-miterlimit:4;stroke-dasharray:none;stroke-opacity:1;display:inline"
           d="M -21.109235,-449.41945 L 80.467219,-404.0212 L 86.252339,-410.75555 L -15.885311,-457.83739 L -21.109235,-449.41945 z " />
      </g>
      <g
         id="g31398"
         transform="translate(136.50794,673.01588)">
        <path
           id="path24448"
           style="fill:#fcef3c;fill-opacity:1;fill-rule:evenodd;stroke:#000000;stroke-width:3;stroke-linecap:butt;stroke-linejoin:miter;stroke-miterlimit:4;stroke-dasharray:none;stroke-opacity:1;display:inline"
           d="M 111.40093,-468.76708 C 132.52586,-470.53278 156.81918,-467.52509 170.21432,-470.22158 C 173.53781,-468.61472 169.61551,-456.78798 169.01629,-453.6454 C 166.76249,-451.2034 136.52644,-460.10433 111.40093,-468.76708 z " />
        <path
           id="path15629"
           style="fill:#fcef3c;fill-opacity:1;fill-rule:evenodd;stroke:#000000;stroke-width:3;stroke-linecap:butt;stroke-linejoin:miter;stroke-miterlimit:4;stroke-dasharray:none;stroke-opacity:1;display:inline"
           d="M 165.45857,-473.37772 L 165.45857,-212.65341 L 175.17206,-212.65341 L 175.17206,-473.37772 L 165.45857,-473.37772 z " />
        <g
           id="g30397"
           transform="translate(-776.19048,114.28571)">
          <path
             id="path30004"
             style="fill:#ffffff;fill-opacity:1;fill-rule:evenodd;stroke:#000000;stroke-width:3;stroke-linecap:butt;stroke-linejoin:miter;stroke-miterlimit:4;stroke-dasharray:none;stroke-opacity:1;display:inline"
             d="M 907.94547,-568.98104 C 883.77825,-535.77985 875.26522,-453.84843 949.09547,-443.45854 C 936.90324,-477.28096 956.27143,-489.69812 1004.6817,-522.51833 L 907.94547,-568.98104 z " />
          <path
             id="path30244"
             style="fill:#000000;fill-opacity:1;fill-rule:evenodd;stroke:#000000;stroke-width:0.53952593;stroke-linecap:round;stroke-linejoin:round;stroke-miterlimit:4;stroke-opacity:1"
             d="M 908.72422,-565.94147 C 908.54631,-565.69706 908.36915,-565.44111 908.19297,-565.19147 C 908.19533,-564.54709 908.3849,-563.79145 908.84922,-562.84772 C 909.94438,-561.12726 913.38585,-561.07431 914.63047,-563.09772 L 908.72422,-565.94147 z M 906.41172,-562.53522 C 905.47202,-561.05877 904.56902,-559.49592 903.69297,-557.87897 C 905.25739,-558.18438 906.67941,-559.49971 906.72422,-560.91022 C 906.67389,-561.55512 906.55964,-562.08754 906.41172,-562.53522 z M 915.09922,-559.81647 C 914.31195,-559.83373 913.38426,-559.47395 912.25547,-558.56647 C 910.11587,-556.42096 912.66041,-550.01314 918.06797,-554.22272 C 918.5728,-554.80348 920.67444,-551.32929 924.28672,-555.12897 C 919.46985,-552.81964 918.51073,-559.74167 915.09922,-559.81647 z M 909.31797,-558.72272 C 905.75442,-553.58445 902.06997,-549.4636 898.38047,-546.12897 C 897.10646,-542.72724 895.96099,-539.17406 895.00547,-535.50397 C 895.61615,-535.80128 896.18672,-536.08099 896.84922,-536.41022 C 895.01866,-530.7308 893.07279,-524.28466 892.53672,-520.12897 C 894.9768,-523.45488 898.22334,-529.30943 901.31797,-534.62897 C 902.25487,-531.24731 903.13853,-527.83721 904.94297,-524.50397 L 904.81797,-534.81647 C 906.201,-532.57355 907.61279,-529.77963 909.38047,-528.09772 C 907.06957,-536.43679 906.32805,-546.27747 909.31797,-558.72272 z M 929.56797,-555.91022 C 929.12933,-554.11741 928.81017,-552.4595 928.63047,-551.06647 C 929.43166,-552.15852 930.34287,-553.57115 931.28672,-555.09772 L 929.56797,-555.91022 z M 937.97422,-549.16022 C 937.68258,-543.92561 941.61368,-544.76963 941.53672,-544.00397 C 942.17687,-537.18105 948.59676,-539.72546 948.69297,-542.75397 C 948.09201,-550.45504 939.96713,-542.89497 937.97422,-549.16022 z M 950.34922,-545.94147 C 950.45756,-545.56821 950.5989,-545.16798 950.81797,-544.72272 C 951.58861,-543.51208 953.52346,-543.11505 955.03672,-543.69147 L 950.34922,-545.94147 z M 956.69297,-541.66022 C 955.99851,-541.56899 955.19613,-541.19771 954.25547,-540.44147 C 952.11587,-538.29595 954.62916,-531.85689 960.03672,-536.06647 C 960.54157,-536.64722 962.64319,-533.20429 966.25547,-537.00397 C 961.25333,-534.60584 960.44304,-542.15286 956.69297,-541.66022 z M 951.31797,-540.59772 C 943.98841,-530.02922 936.10937,-523.70203 928.84922,-519.84772 C 931.06303,-519.58894 933.96213,-520.30544 936.72422,-520.84772 C 934.11006,-518.37549 931.68414,-516.2755 929.22422,-514.16022 C 930.12665,-514.11262 933.75215,-515.7677 938.81797,-518.28522 C 936.98741,-512.60582 935.04154,-506.15966 934.50547,-502.00397 C 936.94555,-505.32987 940.22334,-511.15318 943.31797,-516.47272 C 944.25486,-513.09105 945.10728,-509.71221 946.91172,-506.37897 L 946.81797,-516.66022 C 948.201,-514.41729 949.58154,-511.65463 951.34922,-509.97272 C 949.03832,-518.31179 948.32805,-528.15247 951.31797,-540.59772 z M 971.13047,-535.97272 C 970.89286,-534.87045 970.71704,-533.82357 970.59922,-532.91022 C 971.12451,-533.62621 971.69489,-534.49155 972.28672,-535.41022 L 971.13047,-535.97272 z M 979.94297,-531.00397 C 979.65133,-525.76936 983.58243,-526.64462 983.50547,-525.87897 C 984.14562,-519.05605 990.5655,-521.60046 990.66172,-524.62897 C 990.5866,-525.5916 990.41423,-526.30573 990.13047,-526.84772 L 986.88047,-528.41022 C 984.27044,-528.39939 981.09163,-527.39286 979.94297,-531.00397 z M 997.69297,-523.22272 C 997.24706,-523.02357 996.75469,-522.71169 996.22422,-522.28522 C 994.08463,-520.1397 996.62916,-513.73189 1002.0367,-517.94147 C 1002.1808,-518.1072 1002.4495,-517.92082 1002.8492,-517.69147 C 1003.4601,-518.10547 1004.0411,-518.48959 1004.6617,-518.91022 C 1003.92,-519.37187 1003.2995,-520.08393 1002.693,-520.81647 L 997.69297,-523.22272 z M 919.84922,-523.16022 C 921.32976,-516.75451 910.47039,-519.15374 913.88047,-512.22272 C 915.50757,-509.66662 922.34029,-510.71461 919.41172,-516.91022 C 918.95508,-517.5296 922.76939,-518.80606 919.84922,-523.16022 z M 993.28672,-522.44147 C 985.95714,-511.87296 978.07812,-505.54578 970.81797,-501.69147 C 973.03178,-501.43271 975.96213,-502.14919 978.72422,-502.69147 C 976.11007,-500.21923 973.65289,-498.1505 971.19297,-496.03522 C 971.41858,-496.02332 971.80228,-496.09914 972.34922,-496.28522 C 977.82864,-500.48453 984.23843,-504.96131 991.41172,-509.87897 C 991.61963,-513.75707 992.20291,-517.93021 993.28672,-522.44147 z M 901.03672,-516.66022 C 900.74508,-511.42561 904.67617,-512.26962 904.59922,-511.50397 C 905.23937,-504.68105 911.65927,-507.22545 911.75547,-510.25397 C 911.15451,-517.95504 903.02963,-510.39496 901.03672,-516.66022 z M 919.72422,-509.16022 C 919.02976,-509.06899 918.25863,-508.69771 917.31797,-507.94147 C 915.17837,-505.79597 917.69166,-499.35689 923.09922,-503.56647 C 923.60406,-504.14721 925.70569,-500.70429 929.31797,-504.50397 C 924.31583,-502.10583 923.47429,-509.65285 919.72422,-509.16022 z M 914.38047,-508.06647 C 907.67517,-498.3981 900.51747,-492.33231 893.78672,-488.41022 C 893.87207,-488.05561 893.9463,-487.7007 894.03672,-487.34772 C 895.83339,-487.50368 897.84863,-487.96722 899.78672,-488.34772 C 898.13658,-486.78716 896.56807,-485.3932 895.00547,-484.03522 C 895.13878,-483.60166 895.27021,-483.1532 895.41172,-482.72272 C 897.07986,-483.44197 899.29118,-484.49844 901.88047,-485.78522 C 900.70723,-482.1452 899.49605,-478.18816 898.63047,-474.72272 C 898.96925,-474.01871 899.3276,-473.32005 899.69297,-472.62897 C 901.7544,-475.89396 904.10913,-480.06838 906.38047,-483.97272 C 907.31736,-480.59107 908.16978,-477.21221 909.97422,-473.87897 L 909.88047,-484.16022 C 911.26351,-481.91728 912.64404,-479.15463 914.41172,-477.47272 C 912.10083,-485.81177 911.39055,-495.62122 914.38047,-508.06647 z M 961.84922,-505.03522 C 963.32975,-498.62953 952.47039,-500.99749 955.88047,-494.06647 C 957.50757,-491.51036 964.30904,-492.58961 961.38047,-498.78522 C 960.92382,-499.40459 964.76939,-500.68106 961.84922,-505.03522 z M 943.00547,-498.50397 C 942.71383,-493.26936 946.64494,-494.14464 946.56797,-493.37897 C 947.20812,-486.55605 953.62801,-489.10047 953.72422,-492.12897 C 953.12326,-499.83004 944.99839,-492.23873 943.00547,-498.50397 z M 962.13047,-491.03522 C 961.3432,-491.05248 960.41551,-490.6927 959.28672,-489.78522 C 958.1985,-488.69399 958.31829,-486.50272 959.41172,-485.16022 C 960.95017,-486.69801 962.60489,-488.27547 964.41172,-489.84772 C 963.74259,-490.51774 963.02533,-491.0156 962.13047,-491.03522 z M 956.34922,-489.94147 C 949.01965,-479.37298 941.14062,-473.04578 933.88047,-469.19147 C 936.09427,-468.9327 939.02463,-469.64919 941.78672,-470.19147 C 939.17255,-467.71922 936.71539,-465.6505 934.25547,-463.53522 C 935.15789,-463.48763 938.7834,-465.11145 943.84922,-467.62897 C 942.01867,-461.94955 940.07279,-455.50341 939.53672,-451.34772 C 941.54868,-454.09008 944.14849,-458.57569 946.72422,-463.03522 C 947.65564,-469.07555 950.30974,-474.5344 954.66172,-479.94147 C 954.95959,-483.08086 955.49988,-486.40618 956.34922,-489.94147 z M 925.75547,-474.09772 C 927.236,-467.69203 916.37664,-470.05999 919.78672,-463.12897 C 921.41382,-460.57286 928.24654,-461.65211 925.31797,-467.84772 C 924.86132,-468.46709 928.67564,-469.74356 925.75547,-474.09772 z M 906.91172,-467.56647 C 906.62008,-462.33186 910.58242,-463.20714 910.50547,-462.44147 C 911.14562,-455.61855 917.53426,-458.16297 917.63047,-461.19147 C 917.02951,-468.89254 908.90462,-461.30123 906.91172,-467.56647 z M 926.03672,-460.09772 C 925.24945,-460.11498 924.32176,-459.7552 923.19297,-458.84772 C 921.05336,-456.70222 923.59791,-450.29439 929.00547,-454.50397 C 929.51031,-455.08473 931.58069,-451.64179 935.19297,-455.44147 C 930.37609,-453.13214 929.44823,-460.02292 926.03672,-460.09772 z M 920.25547,-459.00397 C 918.86276,-456.99582 917.4612,-455.15506 916.03672,-453.44147 C 916.95529,-452.75499 917.87132,-452.08596 918.84922,-451.44147 C 919.16904,-453.85882 919.62072,-456.36188 920.25547,-459.00397 z " />
        </g>
        <g
           id="g30409"
           transform="translate(-298.4127,311.11111)">
          <path
             id="path30006"
             style="fill:#ffffff;fill-opacity:1;fill-rule:evenodd;stroke:#000000;stroke-width:3;stroke-linecap:butt;stroke-linejoin:miter;stroke-miterlimit:4;stroke-dasharray:none;stroke-opacity:1;display:inline"
             d="M 393.97882,-672.37558 C 335.57866,-631.31765 393.84793,-523.57121 458.69905,-514.86491 C 446.50682,-548.68733 459.70186,-589.72548 508.11214,-622.54569 L 393.97882,-672.37558 z " />
          <path
             id="path30222"
             style="fill:#000000;fill-opacity:1;fill-rule:evenodd;stroke:#000000;stroke-width:0.53952593;stroke-linecap:round;stroke-linejoin:round;stroke-miterlimit:4;stroke-opacity:1"
             d="M 411.10814,-663.77034 C 405.16992,-656.75651 399.03711,-652.16215 393.29564,-649.11409 C 395.50945,-648.85533 398.4398,-649.57181 401.20189,-650.11409 C 398.58773,-647.64185 396.13056,-645.54187 393.67064,-643.42659 C 394.57306,-643.37898 398.22982,-645.03407 403.29564,-647.55159 C 401.46508,-641.87218 399.51921,-635.42603 398.98314,-631.27034 C 401.42322,-634.59624 404.66976,-640.41955 407.76439,-645.73909 C 408.70128,-642.35744 409.58495,-638.97858 411.38939,-635.64534 L 411.26439,-645.92659 C 412.64742,-643.68365 414.05921,-640.921 415.82689,-639.23909 C 414.0024,-645.82291 413.15941,-653.33611 414.35814,-662.33284 L 411.10814,-663.77034 z M 385.17064,-654.02034 C 386.65117,-647.61465 375.79181,-649.98261 379.20189,-643.05159 C 380.829,-640.4955 387.66171,-641.57473 384.73314,-647.77034 C 384.2765,-648.3897 388.09081,-649.66618 385.17064,-654.02034 z M 452.98314,-645.48909 C 447.08103,-638.55204 440.96857,-633.98611 435.26439,-630.95784 C 437.4782,-630.69907 440.40855,-631.44681 443.17064,-631.98909 C 440.55647,-629.51684 438.0993,-627.41687 435.63939,-625.30159 C 436.5418,-625.254 440.19857,-626.87782 445.26439,-629.39534 C 443.43383,-623.71593 441.48795,-617.26978 440.95189,-613.11409 C 443.39197,-616.43998 446.66976,-622.29455 449.76439,-627.61409 C 450.70128,-624.23243 451.55369,-620.85358 453.35814,-617.52034 L 453.26439,-627.80159 C 454.64742,-625.55865 456.02795,-622.76475 457.79564,-621.08284 C 455.98385,-627.62082 455.16464,-635.10669 456.32689,-644.02034 L 452.98314,-645.48909 z M 374.45189,-644.77034 C 373.65903,-642.60786 373.05029,-640.37115 372.51439,-638.11409 C 374.54117,-637.54393 377.01768,-639.2504 377.07689,-641.11409 C 376.87714,-643.67385 375.81373,-644.51753 374.45189,-644.77034 z M 385.45189,-640.02034 C 384.66462,-640.0376 383.73693,-639.67782 382.60814,-638.77034 C 380.46854,-636.62483 383.01308,-630.21701 388.42064,-634.42659 C 388.92548,-635.00734 391.02711,-631.53316 394.63939,-635.33284 C 389.82252,-633.02353 388.8634,-639.94554 385.45189,-640.02034 z M 379.67064,-638.92659 C 376.82636,-634.82543 373.89372,-631.38362 370.95189,-628.45784 C 370.55936,-623.72258 370.65611,-618.85247 371.17064,-613.92659 C 371.34074,-614.22012 371.5014,-614.51067 371.67064,-614.80159 C 372.60753,-611.41992 373.4912,-608.04108 375.29564,-604.70784 L 375.17064,-615.02034 C 376.55366,-612.77742 377.96546,-609.9835 379.73314,-608.30159 C 377.42224,-616.64066 376.68072,-626.48134 379.67064,-638.92659 z M 427.13939,-635.86409 C 428.61992,-629.45839 417.76056,-631.82636 421.17064,-624.89534 C 422.79774,-622.33924 429.63046,-623.41848 426.70189,-629.61409 C 426.24525,-630.23348 430.05956,-631.50993 427.13939,-635.86409 z M 408.32689,-629.36409 C 408.03525,-624.12948 411.96635,-624.97349 411.88939,-624.20784 C 412.52954,-617.38492 418.94943,-619.92933 419.04564,-622.95784 C 418.44468,-630.65891 410.3198,-623.09883 408.32689,-629.36409 z M 494.82689,-627.20784 C 488.96298,-620.3513 482.92923,-615.84022 477.26439,-612.83284 C 479.4782,-612.57406 482.40855,-613.29056 485.17064,-613.83284 C 482.55648,-611.36061 480.0993,-609.26062 477.63939,-607.14534 C 478.5418,-607.09775 482.16732,-608.75282 487.23314,-611.27034 C 486.10263,-607.76289 484.93526,-603.95542 484.07689,-600.58284 C 485.88926,-602.4335 487.76971,-604.26232 489.76439,-606.08284 C 490.42528,-607.22664 491.07808,-608.33183 491.73314,-609.45784 C 491.85159,-609.03027 491.95865,-608.60417 492.07689,-608.17659 C 493.94537,-609.8123 495.93112,-611.41409 497.95189,-613.02034 C 497.61827,-616.90928 497.67712,-621.11922 498.26439,-625.70784 L 494.82689,-627.20784 z M 427.45189,-621.86409 C 426.66462,-621.88135 425.73693,-621.55282 424.60814,-620.64534 C 422.46854,-618.49982 425.01308,-612.06076 430.42064,-616.27034 C 430.92548,-616.85108 432.99586,-613.40816 436.60814,-617.20784 C 431.79126,-614.89852 430.8634,-621.78929 427.45189,-621.86409 z M 421.67064,-620.77034 C 414.34107,-610.20183 406.46204,-603.9059 399.20189,-600.05159 C 401.4157,-599.79283 404.3148,-600.50931 407.07689,-601.05159 C 404.46273,-598.57935 402.03681,-596.47937 399.57689,-594.36409 C 400.47931,-594.31648 404.10482,-595.97157 409.17064,-598.48909 C 407.34008,-592.80969 405.39421,-586.33228 404.85814,-582.17659 C 407.29822,-585.50249 410.57601,-591.35705 413.67064,-596.67659 C 414.60753,-593.29494 415.45995,-589.91608 417.26439,-586.58284 L 417.17064,-596.86409 C 418.55367,-594.62116 419.93421,-591.8585 421.70189,-590.17659 C 419.39099,-598.51565 418.68072,-608.32509 421.67064,-620.77034 z M 469.13939,-617.73909 C 470.61991,-611.3334 459.76056,-613.70136 463.17064,-606.77034 C 464.79773,-604.21423 471.59921,-605.29348 468.67064,-611.48909 C 468.214,-612.10846 472.05956,-613.38493 469.13939,-617.73909 z M 450.29564,-611.20784 C 450.004,-605.97323 453.9351,-606.81725 453.85814,-606.05159 C 454.49829,-599.22867 460.91818,-601.80434 461.01439,-604.83284 C 460.41342,-612.53391 452.28855,-604.94259 450.29564,-611.20784 z M 469.42064,-603.73909 C 468.63336,-603.75635 467.70568,-603.39657 466.57689,-602.48909 C 464.43728,-600.34358 466.98183,-593.93576 472.38939,-598.14534 C 472.89424,-598.72609 474.9646,-595.25191 478.57689,-599.05159 C 473.76001,-596.74226 472.83215,-603.66429 469.42064,-603.73909 z M 390.20189,-603.36409 C 391.68242,-596.95841 380.82306,-599.32636 384.23314,-592.39534 C 385.86024,-589.83923 392.69296,-590.91848 389.76439,-597.11409 C 389.30774,-597.73346 393.12206,-599.00993 390.20189,-603.36409 z M 463.63939,-602.64534 C 456.30981,-592.07685 448.43079,-585.74965 441.17064,-581.89534 C 443.38444,-581.63656 446.3148,-582.35306 449.07689,-582.89534 C 446.46273,-580.42311 444.00555,-578.35437 441.54564,-576.23909 C 442.44805,-576.1915 446.07357,-577.81532 451.13939,-580.33284 C 449.30883,-574.65342 447.36295,-568.20728 446.82689,-564.05159 C 449.26697,-567.3775 452.54476,-573.23205 455.63939,-578.55159 C 456.57628,-575.16992 457.42869,-571.75983 459.23314,-568.42659 L 459.13939,-578.73909 C 460.48224,-576.56133 461.84992,-573.87034 463.54564,-572.17659 C 463.57215,-572.23084 463.61274,-572.2786 463.63939,-572.33284 C 461.39389,-580.60752 460.6853,-590.34925 463.63939,-602.64534 z M 378.13939,-594.23909 C 377.26061,-594.22088 376.31693,-594.11314 375.42064,-594.11409 C 376.12822,-591.89334 376.88054,-589.6629 377.73314,-587.45784 C 379.72775,-587.01242 382.05044,-588.64145 382.10814,-590.45784 C 381.84522,-593.82706 380.14053,-594.28057 378.13939,-594.23909 z M 390.48314,-589.36409 C 389.69587,-589.38135 388.79943,-589.05282 387.67064,-588.14534 C 385.53105,-585.99984 388.04433,-579.56076 393.45189,-583.77034 C 393.95673,-584.3511 396.05836,-580.90816 399.67064,-584.70784 C 394.85377,-582.39851 393.89465,-589.28929 390.48314,-589.36409 z M 384.73314,-588.27034 C 383.17159,-586.01874 381.58341,-583.96599 379.98314,-582.08284 C 380.88767,-580.03739 381.8385,-578.00248 382.85814,-575.98909 C 383.07818,-579.79435 383.67318,-583.85836 384.73314,-588.27034 z M 432.20189,-585.23909 C 433.68242,-578.8334 422.82306,-581.20136 426.23314,-574.27034 C 427.86024,-571.71425 434.66171,-572.79348 431.73314,-578.98909 C 431.2765,-579.60845 435.12206,-580.88493 432.20189,-585.23909 z M 413.35814,-578.70784 C 413.0665,-573.47323 416.9976,-574.31725 416.92064,-573.55159 C 417.56079,-566.72867 423.98068,-569.30434 424.07689,-572.33284 C 423.47593,-580.03391 415.35105,-572.44259 413.35814,-578.70784 z M 432.48314,-571.23909 C 431.69587,-571.25635 430.76818,-570.89657 429.63939,-569.98909 C 427.49979,-567.84358 430.04433,-561.43576 435.45189,-565.64534 C 435.95673,-566.22609 438.0271,-562.75191 441.63939,-566.55159 C 436.82251,-564.24226 435.89465,-571.16429 432.48314,-571.23909 z M 426.70189,-570.14534 C 419.37232,-559.57684 411.49329,-553.24965 404.23314,-549.39534 C 406.44696,-549.13656 409.3773,-549.85306 412.13939,-550.39534 C 409.72703,-548.11395 407.43999,-546.18951 405.17064,-544.23909 C 405.2713,-544.13237 405.38216,-544.03292 405.48314,-543.92659 C 407.03717,-544.40089 410.1468,-545.81761 414.20189,-547.83284 C 413.18102,-544.66553 412.15415,-541.25966 411.32689,-538.14534 C 411.91604,-537.6005 412.5105,-537.05166 413.10814,-536.52034 C 414.88884,-539.45287 416.82441,-542.79303 418.70189,-546.02034 C 419.63878,-542.63867 420.4912,-539.25983 422.29564,-535.92659 L 422.20189,-546.23909 C 423.58492,-543.99617 424.99671,-541.20225 426.76439,-539.52034 C 424.45349,-547.85941 423.71197,-557.70009 426.70189,-570.14534 z M 455.32689,-560.58284 C 455.15273,-557.45686 456.48878,-556.50793 457.57689,-556.08284 C 457.73714,-556.70942 457.93114,-557.33071 458.10814,-557.95784 C 456.908,-558.18916 455.87771,-558.85119 455.32689,-560.58284 z M 455.23314,-537.27034 C 452.1748,-534.79092 449.13488,-532.82742 446.20189,-531.27034 C 448.41569,-531.01157 451.34605,-531.72806 454.10814,-532.27034 C 451.49398,-529.79809 449.0368,-527.69812 446.57689,-525.58284 C 447.44719,-525.53692 450.91604,-527.09134 455.70189,-529.45784 C 455.39998,-532.04698 455.24794,-534.63606 455.23314,-537.27034 z M 438.07689,-536.17659 C 439.55741,-529.7709 428.69806,-532.13886 432.10814,-525.20784 C 433.73524,-522.65173 440.56796,-523.73098 437.63939,-529.92659 C 437.18275,-530.54596 440.99706,-531.82243 438.07689,-536.17659 z M 455.82689,-528.52034 C 454.30882,-523.75714 452.78395,-518.63813 452.10814,-514.83284 C 452.32634,-514.77841 452.54594,-514.72887 452.76439,-514.67659 C 454.05645,-516.58614 455.5592,-519.04857 457.07689,-521.64534 C 456.55249,-523.91099 456.1277,-526.20843 455.82689,-528.52034 z M 426.01439,-527.02034 C 425.81009,-527.01611 425.59866,-527.00086 425.38939,-526.98909 C 426.85001,-526.01404 428.33513,-525.09538 429.82689,-524.20784 C 429.33133,-526.69504 427.80472,-527.05745 426.01439,-527.02034 z M 437.95189,-522.14534 C 437.28988,-522.05837 436.55446,-521.70677 435.67064,-521.02034 C 439.19323,-519.2493 442.75378,-517.71487 446.38939,-516.48909 C 446.75693,-516.74897 447.13925,-517.06163 447.54564,-517.48909 C 442.54349,-515.09094 441.70195,-522.63797 437.95189,-522.14534 z " />
        </g>
        <path
           id="path18549"
           style="fill:#fcef3c;fill-opacity:1;fill-rule:evenodd;stroke:#000000;stroke-width:3;stroke-linecap:butt;stroke-linejoin:miter;stroke-miterlimit:4;stroke-dasharray:none;stroke-opacity:1;display:inline"
           d="M 121.43452,-449.73587 L 229.01097,-402.33762 L 236.79609,-409.07197 L 126.65844,-458.15381 L 121.43452,-449.73587 z " />
        <path
           id="path18547"
           style="fill:#fcef3c;fill-opacity:1;fill-rule:evenodd;stroke:#000000;stroke-width:3;stroke-linecap:butt;stroke-linejoin:miter;stroke-miterlimit:4;stroke-dasharray:none;stroke-opacity:1;display:inline"
           d="M 87.201569,-362.26094 L 212.95117,-309.7403 L 218.73629,-316.47465 L 94.109069,-368.4341 L 87.201569,-362.26094 z " />
      </g>
      <g
         id="g2418">
        <path
           id="path15606"
           style="fill:#fcef3c;fill-opacity:1;fill-rule:evenodd;stroke:#000000;stroke-width:3;stroke-linecap:butt;stroke-linejoin:miter;stroke-miterlimit:4;stroke-dasharray:none;stroke-opacity:1;display:inline"
           d="M 145.05327,474.63823 C 221.94506,551.57135 378.47538,563.58053 470.08522,483.10671 L 470.08522,457.57059 C 362.34838,521.19834 270.93219,546.96151 145.05327,462.3878 L 145.05327,474.63823 z " />
        <path
           id="path14613"
           style="fill:#fcef3c;fill-opacity:1;fill-rule:evenodd;stroke:#000000;stroke-width:3;stroke-linecap:butt;stroke-linejoin:miter;stroke-miterlimit:4;stroke-dasharray:none;stroke-opacity:1"
           d="M 145.11244,470.86047 C 222.00423,547.79359 378.54981,539.80277 470.15965,459.32895 L 470.15965,433.79283 C 362.42281,497.42058 270.99136,543.18375 145.11244,458.61004 L 145.11244,470.86047 z " />
        <path
           id="path15598"
           style="fill:#fcef3c;fill-opacity:1;fill-rule:evenodd;stroke:#000000;stroke-width:3;stroke-linecap:butt;stroke-linejoin:miter;stroke-miterlimit:4;stroke-dasharray:none;stroke-opacity:1;display:inline"
           d="M 145.17773,456.28234 C 222.06952,533.21546 378.58105,516.49029 470.19089,436.01647 L 470.19089,408.10524 C 364.69883,480.71212 271.05665,528.60562 145.17773,444.03191 L 145.17773,456.28234 z " />
        <path
           id="path15600"
           style="fill:#fcef3c;fill-opacity:1;fill-rule:evenodd;stroke:#000000;stroke-width:3;stroke-linecap:butt;stroke-linejoin:miter;stroke-miterlimit:4;stroke-dasharray:none;stroke-opacity:1;display:inline"
           d="M 145.14509,441.68476 C 222.03688,518.61788 376.5572,511.57629 468.72823,406.97105 L 449.08638,406.97105 C 343.59432,479.57793 271.02401,514.00804 145.14509,429.43433 L 145.14509,441.68476 z " />
        <path
           id="path15602"
           style="fill:#fcef3c;fill-opacity:1;fill-rule:evenodd;stroke:#000000;stroke-width:3;stroke-linecap:butt;stroke-linejoin:miter;stroke-miterlimit:4;stroke-dasharray:none;stroke-opacity:1;display:inline"
           d="M 144.41672,427.10663 C 230.84884,501.79497 344.96305,501.20543 451.16399,407.26291 L 427.59376,407.26291 C 319.85692,474.81903 262.4389,474.73729 171.35412,427.7637 L 144.41672,427.10663 z " />
        <path
           id="path15604"
           style="fill:#fcef3c;fill-opacity:1;fill-rule:evenodd;stroke:#000000;stroke-width:3;stroke-linecap:butt;stroke-linejoin:miter;stroke-miterlimit:4;stroke-dasharray:none;stroke-opacity:1;display:inline"
           d="M 143.65851,431.56083 C 164.42475,433.11645 163.44537,432.94345 184.34352,434.70585 C 196.45363,449.07696 246.19852,466.79138 270.67848,469.02177 C 319.63839,473.48256 376.54106,454.19881 429.64153,407.22755 L 406.0713,407.22755 C 352.20288,441.00561 315.96493,463.48616 264.27111,456.35791 C 238.4242,452.79379 210.95811,441.26627 199.34309,425.0984 C 166.96382,422.39924 112.8355,418.42689 85.294136,418.74921 L 143.65851,431.56083 z " />
      </g>
      <g
         id="g2411">
        <path
           id="path2403"
           style="fill:#fcef3c;fill-opacity:1;fill-rule:evenodd;stroke:#000000;stroke-width:3;stroke-linecap:butt;stroke-linejoin:miter;stroke-miterlimit:4;stroke-dasharray:none;stroke-opacity:1;display:inline"
           d="M 483.76909,482.4233 L 483.76909,380.83069 L 469.37378,380.83069 L 469.37378,482.4233 L 483.76909,482.4233 z " />
        <path
           id="path2405"
           style="fill:#fcef3c;fill-opacity:1;fill-rule:evenodd;stroke:#000000;stroke-width:3;stroke-linecap:butt;stroke-linejoin:miter;stroke-miterlimit:4;stroke-dasharray:none;stroke-opacity:1;display:inline"
           d="M 498.25321,482.22487 L 498.25321,380.63226 L 483.8579,380.63226 L 483.8579,482.22487 L 498.25321,482.22487 z " />
        <path
           id="path15616"
           style="fill:#fcef3c;fill-opacity:1;fill-rule:evenodd;stroke:#000000;stroke-width:3;stroke-linecap:butt;stroke-linejoin:miter;stroke-miterlimit:4;stroke-dasharray:none;stroke-opacity:1;display:inline"
           d="M 503.13576,399.86793 L 401.83159,392.21798 L 400.74762,406.57242 L 502.05179,414.22237 L 503.13576,399.86793 z " />
        <path
           id="path2407"
           style="fill:#fcef3c;fill-opacity:1;fill-rule:evenodd;stroke:#000000;stroke-width:3;stroke-linecap:butt;stroke-linejoin:miter;stroke-miterlimit:4;stroke-dasharray:none;stroke-opacity:1;display:inline"
           d="M 503.97185,387.43348 L 402.66768,379.78353 L 401.58371,394.13797 L 502.88788,401.78792 L 503.97185,387.43348 z " />
        <path
           id="path2409"
           style="fill:#fcef3c;fill-opacity:1;fill-rule:evenodd;stroke:#000000;stroke-width:3;stroke-linecap:butt;stroke-linejoin:miter;stroke-miterlimit:4;stroke-dasharray:none;stroke-opacity:1;display:inline"
           d="M 504.96391,375.29855 L 403.65974,367.6486 L 402.57577,382.00304 L 503.87994,389.65299 L 504.96391,375.29855 z " />
      </g>
    </g>
    <g
       id="g10644"
       transform="translate(904.36713,723.20542)">
      <g
         id="layer5"
         style="display:inline"
         transform="translate(-904.44785,-723.28231)">
        <rect
           id="rect2230"
           style="opacity:1;fill:#ffffff;fill-opacity:1;fill-rule:nonzero;stroke:#000000;stroke-width:2.90240884;stroke-miterlimit:4;stroke-dasharray:none;stroke-opacity:1"
           y="2.1139324"
           x="1.5319287"
           height="179.00894"
           width="596.46588" />
      </g>
      <path
         id="path1883"
         style="fill:#000000;fill-opacity:1;fill-rule:evenodd;stroke:#000000;stroke-width:1.49334478;stroke-linecap:round;stroke-linejoin:round;stroke-miterlimit:4;stroke-opacity:1"
         d="M -898.67227,-720.80972 C -899.99447,-717.96792 -901.31877,-715.16992 -902.64097,-712.43472 L -902.64097,-708.21592 C -899.93437,-710.75452 -895.90497,-715.19802 -891.04727,-720.80972 L -898.67227,-720.80972 z M -885.42227,-720.80972 C -883.90207,-705.98612 -881.90307,-690.42845 -879.07847,-680.59095 C -876.84027,-690.36685 -875.08587,-705.74552 -873.32847,-720.80972 L -885.42227,-720.80972 z M -867.57847,-720.80972 C -863.09357,-715.35982 -858.33687,-710.04472 -852.35977,-705.34092 L -859.23477,-720.80972 L -867.57847,-720.80972 z M -848.23477,-720.80972 C -847.15387,-720.25532 -846.08587,-719.73472 -845.01597,-719.34092 C -845.40437,-719.82302 -845.78697,-720.32012 -846.17227,-720.80972 L -848.23477,-720.80972 z M -801.42227,-720.80972 C -801.70537,-720.44902 -801.98187,-720.07102 -802.26597,-719.71592 C -801.32847,-719.99722 -800.36167,-720.37932 -799.39097,-720.80972 L -801.42227,-720.80972 z M -787.85977,-720.80972 C -790.26847,-715.63252 -792.66967,-710.66832 -795.07847,-705.71592 C -793.15387,-706.42982 -787.68097,-712.20772 -780.23477,-720.80972 L -787.85977,-720.80972 z M -774.60977,-720.80972 C -773.08957,-705.98612 -771.09057,-690.42845 -768.26597,-680.59095 C -766.02787,-690.36685 -764.27347,-705.74552 -762.51597,-720.80972 L -774.60977,-720.80972 z M -756.76597,-720.80972 C -752.28107,-715.35982 -747.52437,-710.04472 -741.54727,-705.34092 L -748.42227,-720.80972 L -756.76597,-720.80972 z M -737.42227,-720.80972 C -736.34137,-720.25532 -735.27337,-719.73472 -734.20347,-719.34092 C -734.59187,-719.82302 -734.97447,-720.32012 -735.35977,-720.80972 L -737.42227,-720.80972 z M -690.60977,-720.80972 C -690.89287,-720.44902 -691.16937,-720.07102 -691.45347,-719.71592 C -690.51597,-719.99722 -689.54917,-720.37932 -688.57847,-720.80972 L -690.60977,-720.80972 z M -677.04727,-720.80972 C -679.45597,-715.63252 -681.85717,-710.66832 -684.26597,-705.71592 C -682.34107,-706.43002 -676.87037,-712.20542 -669.42227,-720.80972 L -677.04727,-720.80972 z M -663.79727,-720.80972 C -662.27717,-705.98612 -660.27807,-690.42835 -657.45347,-680.59095 C -655.21527,-690.36685 -653.46097,-705.74552 -651.70347,-720.80972 L -663.79727,-720.80972 z M -645.95347,-720.80972 C -641.46857,-715.35982 -636.71197,-710.04472 -630.73477,-705.34092 L -637.60977,-720.80972 L -645.95347,-720.80972 z M -626.60977,-720.80972 C -625.52887,-720.25532 -624.46087,-719.73472 -623.39097,-719.34092 C -623.77937,-719.82302 -624.16197,-720.32012 -624.54727,-720.80972 L -626.60977,-720.80972 z M -579.79727,-720.80972 C -580.08037,-720.44902 -580.35687,-720.07102 -580.64097,-719.71592 C -579.70947,-719.99542 -578.76137,-720.38302 -577.79727,-720.80972 L -579.79727,-720.80972 z M -566.23477,-720.80972 C -568.64347,-715.63252 -571.04467,-710.66832 -573.45347,-705.71592 C -571.52857,-706.43002 -566.05787,-712.20542 -558.60972,-720.80972 L -566.23477,-720.80972 z M -552.98472,-720.80972 C -551.46457,-705.98612 -549.46551,-690.42835 -546.64097,-680.59095 C -544.40275,-690.36685 -542.64841,-705.74552 -540.89097,-720.80972 L -552.98472,-720.80972 z M -535.14097,-720.80972 C -530.65606,-715.35982 -525.89945,-710.04472 -519.92222,-705.34092 L -526.79722,-720.80972 L -535.14097,-720.80972 z M -515.79722,-720.80972 C -514.7164,-720.25532 -513.64841,-719.73472 -512.57847,-719.34092 C -512.96691,-719.82302 -513.34952,-720.32012 -513.73472,-720.80972 L -515.79722,-720.80972 z M -468.98472,-720.80972 C -469.26789,-720.44902 -469.54436,-720.07102 -469.82847,-719.71592 C -468.89702,-719.99542 -467.94889,-720.38302 -466.98472,-720.80972 L -468.98472,-720.80972 z M -455.42222,-720.80972 C -457.83098,-715.63252 -460.23221,-710.66832 -462.64097,-705.71592 C -460.71605,-706.43002 -455.24533,-712.20542 -447.79722,-720.80972 L -455.42222,-720.80972 z M -442.17222,-720.80972 C -440.65208,-705.98612 -438.65302,-690.42835 -435.82847,-680.59095 C -433.59027,-690.36685 -431.83592,-705.74552 -430.07847,-720.80972 L -442.17222,-720.80972 z M -424.32847,-720.80972 C -419.84356,-715.35982 -415.08695,-710.04472 -409.10972,-705.34092 L -415.98472,-720.80972 L -424.32847,-720.80972 z M -404.98472,-720.80972 C -403.9039,-720.25532 -402.83591,-719.73472 -401.76597,-719.34092 C -402.15441,-719.82302 -402.53702,-720.32012 -402.92222,-720.80972 L -404.98472,-720.80972 z M -358.17222,-720.80972 C -358.45539,-720.44902 -358.73186,-720.07102 -359.01597,-719.71592 C -358.08452,-719.99542 -357.13639,-720.38302 -356.17222,-720.80972 L -358.17222,-720.80972 z M -344.60972,-720.80972 C -347.01848,-715.63252 -349.41971,-710.66832 -351.82847,-705.71592 C -349.90356,-706.43002 -344.43284,-712.20542 -336.98472,-720.80972 L -344.60972,-720.80972 z M -331.35972,-720.80972 C -329.83959,-705.98612 -327.84051,-690.42835 -325.01597,-680.59095 C -322.77774,-690.36685 -321.02341,-705.74552 -319.26597,-720.80972 L -331.35972,-720.80972 z M -313.51597,-720.80972 C -311.18709,-717.97972 -308.7799,-715.18772 -306.17222,-712.49722 L -306.17222,-720.80972 L -313.51597,-720.80972 z M -827.07847,-708.71592 C -816.28367,-694.06575 -846.47767,-688.17595 -830.20347,-674.30975 C -823.26287,-669.60165 -807.11637,-679.81445 -821.35977,-692.34095 C -823.19997,-693.41325 -814.87827,-700.85905 -827.07847,-708.71592 z M -716.26597,-708.71592 C -705.47117,-694.06575 -735.66517,-688.17595 -719.39097,-674.30975 C -712.45037,-669.60165 -696.30387,-679.81445 -710.54727,-692.34095 C -712.38747,-693.41325 -704.06577,-700.85905 -716.26597,-708.71592 z M -605.45347,-708.71592 C -594.65867,-694.06575 -624.85267,-688.17595 -608.57847,-674.30975 C -601.63787,-669.60165 -585.49127,-679.81445 -599.73477,-692.34095 C -601.57507,-693.41325 -593.25327,-700.85905 -605.45347,-708.71592 z M -494.64097,-708.71592 C -483.84615,-694.06575 -514.04017,-688.17595 -497.76597,-674.30975 C -490.82538,-669.60165 -474.67887,-679.81445 -488.92222,-692.34095 C -490.76251,-693.41325 -482.44076,-700.85905 -494.64097,-708.71592 z M -383.82847,-708.71592 C -373.03362,-694.06575 -403.22767,-688.17595 -386.95347,-674.30975 C -380.01284,-669.60165 -363.86637,-679.81445 -378.10972,-692.34095 C -379.94998,-693.41325 -371.62826,-700.85905 -383.82847,-708.71592 z M -807.92227,-673.96595 C -811.04137,-674.11855 -814.02097,-672.53355 -816.82847,-667.21595 C -819.90917,-659.41545 -806.41487,-645.86425 -797.29727,-662.49725 C -796.65217,-664.52705 -787.58467,-658.03305 -782.57847,-671.65345 C -791.16207,-661.78445 -799.95107,-673.57605 -807.92227,-673.96595 z M -697.10977,-673.96595 C -700.22887,-674.11855 -703.20847,-672.53355 -706.01597,-667.21595 C -709.09657,-659.41545 -695.60247,-645.86425 -686.48477,-662.49725 C -685.83957,-664.52705 -676.77217,-658.03305 -671.76597,-671.65345 C -680.34957,-661.78445 -689.13857,-673.57605 -697.10977,-673.96595 z M -586.29727,-673.96595 C -589.41637,-674.11855 -592.39597,-672.53355 -595.20347,-667.21595 C -598.28427,-659.41545 -584.78997,-645.86425 -575.67227,-662.49725 C -575.02707,-664.52705 -565.95967,-658.03305 -560.95347,-671.65345 C -569.53707,-661.78445 -578.32607,-673.57605 -586.29727,-673.96595 z M -475.48472,-673.96595 C -478.60387,-674.11855 -481.58346,-672.53355 -484.39097,-667.21595 C -487.47165,-659.41545 -473.9774,-645.86425 -464.85972,-662.49725 C -464.21464,-664.52705 -455.14727,-658.03305 -450.14097,-671.65345 C -458.72465,-661.78445 -467.51356,-673.57605 -475.48472,-673.96595 z M -364.67222,-673.96595 C -367.79137,-674.11855 -370.77096,-672.53355 -373.57847,-667.21595 C -376.65918,-659.41545 -363.1649,-645.86425 -354.04722,-662.49725 C -353.4021,-664.52705 -344.33477,-658.03305 -339.32847,-671.65345 C -347.91212,-661.78445 -356.70105,-673.57605 -364.67222,-673.96595 z M -842.42227,-673.77845 C -850.39337,-673.38855 -859.18237,-661.59695 -867.76597,-671.46595 C -862.75967,-657.84565 -853.69237,-664.37085 -853.04727,-662.34095 C -843.92947,-645.70805 -830.43517,-659.22795 -833.51597,-667.02845 C -836.32347,-672.34605 -839.30307,-673.93105 -842.42227,-673.77845 z M -731.60977,-673.77845 C -739.58087,-673.38855 -748.36987,-661.59695 -756.95347,-671.46595 C -751.94717,-657.84565 -742.87977,-664.37085 -742.23477,-662.34095 C -733.11697,-645.70805 -719.62277,-659.22795 -722.70347,-667.02845 C -725.51097,-672.34605 -728.49057,-673.93105 -731.60977,-673.77845 z M -620.79727,-673.77845 C -628.76837,-673.38855 -637.55737,-661.59695 -646.14097,-671.46595 C -641.13467,-657.84565 -632.06727,-664.37085 -631.42227,-662.34095 C -622.30447,-645.70805 -608.81027,-659.22795 -611.89097,-667.02845 C -614.69847,-672.34605 -617.67807,-673.93105 -620.79727,-673.77845 z M -510.01597,-673.77845 C -517.98713,-673.38855 -526.77603,-661.59695 -535.35972,-671.46595 C -530.35342,-657.84565 -521.25479,-664.37085 -520.60972,-662.34095 C -511.49205,-645.70805 -497.99779,-659.22795 -501.07847,-667.02845 C -503.88598,-672.34605 -506.89682,-673.93105 -510.01597,-673.77845 z M -399.20347,-673.77845 C -407.17464,-673.38855 -415.96355,-661.59695 -424.54722,-671.46595 C -419.54092,-657.84565 -410.44232,-664.37085 -409.79722,-662.34095 C -400.67955,-645.70805 -387.18526,-659.22795 -390.26597,-667.02845 C -393.07348,-672.34605 -396.08432,-673.93105 -399.20347,-673.77845 z M -893.39097,-671.65345 C -896.47037,-668.11295 -899.55597,-667.36465 -902.64097,-667.87225 L -902.64097,-662.71595 C -899.61147,-662.97335 -895.96747,-664.64365 -893.39097,-671.65345 z M -313.73472,-671.46595 C -311.62843,-665.73545 -308.78923,-663.58255 -306.17222,-662.84095 L -306.17222,-667.55975 C -308.69055,-667.56965 -311.22589,-668.58145 -313.73472,-671.46595 z M -824.48477,-664.34095 C -831.50407,-629.44105 -844.58237,-604.73025 -858.79727,-586.96595 C -852.88817,-588.73915 -846.25107,-593.80545 -839.82847,-598.21595 C -843.75617,-589.06415 -847.68207,-581.07255 -851.60977,-572.99725 C -849.26467,-573.86695 -841.81067,-582.00745 -831.70347,-593.96595 C -830.11897,-577.52585 -827.96667,-559.01965 -824.76597,-547.87225 C -822.21787,-559.00165 -820.35077,-577.42735 -818.32847,-594.34095 C -812.23527,-586.77755 -806.32287,-579.11005 -798.07847,-572.62225 L -809.64097,-598.65345 C -803.66437,-594.47305 -797.07267,-588.95475 -790.73477,-586.62225 C -805.76207,-605.27295 -818.41747,-629.43725 -824.48477,-664.34095 z M -713.67227,-664.34095 C -720.69157,-629.44105 -733.76987,-604.73025 -747.98477,-586.96595 C -742.07577,-588.73915 -735.43857,-593.80545 -729.01597,-598.21595 C -732.94367,-589.06415 -736.86947,-581.07255 -740.79727,-572.99725 C -738.45207,-573.86695 -730.99817,-582.00745 -720.89097,-593.96595 C -719.30637,-577.52585 -717.15417,-559.01965 -713.95347,-547.87225 C -711.40537,-559.00165 -709.53827,-577.42735 -707.51597,-594.34095 C -701.42267,-586.77755 -695.51037,-579.11005 -687.26597,-572.62225 L -698.82847,-598.65345 C -692.85197,-594.47305 -686.26007,-588.95475 -679.92227,-586.62225 C -694.94957,-605.27295 -707.60497,-629.43725 -713.67227,-664.34095 z M -602.85977,-664.34095 C -609.87907,-629.44105 -622.95737,-604.73025 -637.17227,-586.96595 C -631.26327,-588.73915 -624.62607,-593.80545 -618.20347,-598.21595 C -622.13117,-589.06415 -626.05697,-581.07255 -629.98477,-572.99725 C -627.63957,-573.86695 -620.18567,-582.00745 -610.07847,-593.96595 C -608.49387,-577.52585 -606.34167,-559.01965 -603.14097,-547.87225 C -600.59287,-559.00165 -598.72577,-577.42735 -596.70347,-594.34095 C -590.61017,-586.77755 -584.69787,-579.11005 -576.45347,-572.62225 L -588.01597,-598.65345 C -582.03937,-594.47305 -575.44757,-588.95475 -569.10977,-586.62225 C -584.13697,-605.27295 -596.79247,-629.43725 -602.85977,-664.34095 z M -492.04722,-664.34095 C -499.06663,-629.44105 -512.14489,-604.73025 -526.35972,-586.96595 C -520.45077,-588.73915 -513.8135,-593.80545 -507.39097,-598.21595 C -511.31869,-589.06415 -515.24452,-581.07255 -519.17222,-572.99725 C -516.82709,-573.86695 -509.37314,-582.00745 -499.26597,-593.96595 C -497.68139,-577.52585 -495.52914,-559.01965 -492.32847,-547.87225 C -489.78033,-559.00165 -487.91327,-577.42735 -485.89097,-594.34095 C -479.79766,-586.77755 -473.88542,-579.11005 -465.64097,-572.62225 L -477.20347,-598.65345 C -471.22685,-594.47305 -464.6352,-588.95475 -458.29722,-586.62225 C -473.32455,-605.27295 -485.97986,-629.43725 -492.04722,-664.34095 z M -381.23472,-664.34095 C -388.25416,-629.44105 -401.33239,-604.73025 -415.54722,-586.96595 C -409.63824,-588.73915 -403.001,-593.80545 -396.57847,-598.21595 C -400.50616,-589.06415 -404.43202,-581.07255 -408.35972,-572.99725 C -406.01462,-573.86695 -398.56064,-582.00745 -388.45347,-593.96595 C -386.86892,-577.52585 -384.74789,-559.01965 -381.54722,-547.87225 C -378.9991,-559.00165 -377.10077,-577.42735 -375.07847,-594.34095 C -368.98512,-586.77755 -363.07292,-579.11005 -354.82847,-572.62225 L -366.39097,-598.65345 C -360.41431,-594.47305 -353.8227,-588.95475 -347.48472,-586.62225 C -362.51208,-605.27295 -375.16736,-629.43725 -381.23472,-664.34095 z M -902.64097,-588.02845 L -902.64097,-587.05975 C -902.27387,-586.90475 -901.91277,-586.75675 -901.54727,-586.62225 C -901.91747,-587.08165 -902.27367,-587.56215 -902.64097,-588.02845 z M -882.01597,-578.34095 C -871.22117,-563.69085 -901.44647,-557.80095 -885.17227,-543.93475 C -878.23167,-539.22655 -862.05387,-549.43945 -876.29727,-561.96595 C -878.13747,-563.03825 -869.81577,-570.48405 -882.01597,-578.34095 z M -771.20347,-578.34095 C -760.40867,-563.69085 -790.63387,-557.80095 -774.35977,-543.93475 C -767.41907,-539.22655 -751.24137,-549.43945 -765.48477,-561.96595 C -767.32507,-563.03825 -759.00327,-570.48405 -771.20347,-578.34095 z M -660.39097,-578.34095 C -649.59627,-563.69085 -679.82147,-557.80095 -663.54727,-543.93475 C -656.60657,-539.22655 -640.42877,-549.43945 -654.67227,-561.96595 C -656.51257,-563.03825 -648.19077,-570.48405 -660.39097,-578.34095 z M -549.57847,-578.34095 C -538.78367,-563.69085 -569.00887,-557.80095 -552.73472,-543.93475 C -545.79415,-539.22655 -529.61637,-549.43945 -543.85972,-561.96595 C -545.69997,-563.03825 -537.37826,-570.48405 -549.57847,-578.34095 z M -438.76597,-578.34095 C -427.97114,-563.69085 -458.19642,-557.80095 -441.92222,-543.93475 C -434.98161,-539.22655 -418.80387,-549.43945 -433.04722,-561.96595 C -434.8875,-563.03825 -426.56576,-570.48405 -438.76597,-578.34095 z M -327.95347,-578.34095 C -317.15861,-563.69085 -347.38392,-557.80095 -331.10972,-543.93475 C -324.16909,-539.22655 -307.99137,-549.43945 -322.23472,-561.96595 C -324.07498,-563.03825 -315.75326,-570.48405 -327.95347,-578.34095 z M -863.89097,-543.55975 C -865.28707,-543.44245 -866.64817,-542.91145 -867.98477,-541.80975 L -857.10977,-541.80975 C -859.42157,-542.90205 -861.69087,-543.74455 -863.89097,-543.55975 z M -753.07847,-543.55975 C -754.47457,-543.44245 -755.83567,-542.91145 -757.17227,-541.80975 L -746.29727,-541.80975 C -748.60907,-542.90205 -750.87837,-543.74455 -753.07847,-543.55975 z M -642.26597,-543.55975 C -643.66207,-543.44245 -645.02317,-542.91145 -646.35977,-541.80975 L -635.48477,-541.80975 C -637.79657,-542.90205 -640.06587,-543.74455 -642.26597,-543.55975 z M -531.45347,-543.55975 C -532.84952,-543.44245 -534.21068,-542.91145 -535.54722,-541.80975 L -524.67222,-541.80975 C -526.98403,-542.90205 -529.25333,-543.74455 -531.45347,-543.55975 z M -420.64097,-543.55975 C -422.03702,-543.44245 -423.39818,-542.91145 -424.73472,-541.80975 L -413.85972,-541.80975 C -416.17153,-542.90205 -418.44084,-543.74455 -420.64097,-543.55975 z M -309.82847,-543.55975 C -311.22452,-543.44245 -312.58568,-542.91145 -313.92222,-541.80975 L -306.17222,-541.80975 L -306.17222,-543.05975 C -307.41043,-543.43655 -308.62658,-543.66065 -309.82847,-543.55975 z M -897.39097,-543.40345 C -899.10347,-543.31965 -900.86307,-542.71145 -902.64097,-541.90345 L -902.64097,-541.80975 L -892.51597,-541.80975 C -894.10227,-543.02755 -895.72387,-543.48495 -897.39097,-543.40345 z M -786.57847,-543.40345 C -788.35167,-543.31675 -790.17317,-542.66045 -792.01597,-541.80975 L -781.70347,-541.80975 C -783.28977,-543.02755 -784.91137,-543.48495 -786.57847,-543.40345 z M -675.76597,-543.40345 C -677.53917,-543.31675 -679.36067,-542.66045 -681.20347,-541.80975 L -670.89097,-541.80975 C -672.47727,-543.02755 -674.09887,-543.48495 -675.76597,-543.40345 z M -564.95347,-543.40345 C -566.72667,-543.31675 -568.54817,-542.66045 -570.39097,-541.80975 L -560.07847,-541.80975 C -561.66474,-543.02755 -563.28637,-543.48495 -564.95347,-543.40345 z M -454.14097,-543.40345 C -455.91413,-543.31675 -457.73566,-542.66045 -459.57847,-541.80975 L -449.26597,-541.80975 C -450.85224,-543.02755 -452.47382,-543.48495 -454.14097,-543.40345 z M -343.32847,-543.40345 C -345.10163,-543.31675 -346.92316,-542.66045 -348.76597,-541.80975 L -338.45347,-541.80975 C -340.03974,-543.02755 -341.66132,-543.48495 -343.32847,-543.40345 z " />
    </g>
    <g
       id="g14598"
       transform="translate(0.7936552,-0.7936529)">
      <path
         id="path13587"
         style="fill:#5ab532;fill-opacity:1;fill-rule:evenodd;stroke:none;stroke-width:1px;stroke-linecap:butt;stroke-linejoin:miter;stroke-opacity:1;display:inline"
         d="M 80.576896,494.15278 C 169.00329,609.92269 299.48316,659.02778 299.48316,659.02778 C 299.48315,659.02778 429.96314,609.9159 518.38941,494.15278 C 518.38941,494.15278 459.08168,479.07341 392.1439,498.81548 C 325.64125,518.42921 241.11448,500.10516 191.54664,493.35913 C 94.636367,480.16993 80.576896,494.15278 80.576896,494.15278 z " />
      <path
         id="path12591"
         style="fill:#ffffff;fill-opacity:1;fill-rule:evenodd;stroke:none;stroke-width:1px;stroke-linecap:butt;stroke-linejoin:miter;stroke-opacity:1"
         d="M 140.53845,533.50899 C 216.34074,531.66283 215.27811,529.37768 258.82277,514.42215 C 237.81469,530.73306 169.80474,537.96301 140.53845,533.50899 z " />
      <path
         id="path14566"
         style="fill:#ffffff;fill-opacity:1;fill-rule:evenodd;stroke:none;stroke-width:1px;stroke-linecap:butt;stroke-linejoin:miter;stroke-opacity:1;display:inline"
         d="M 170.80784,556.94388 C 232.58023,567.44403 272.2043,537.09908 306.76984,549.92275 C 273.41544,541.54104 212.13984,571.49943 170.80784,556.94388 z " />
      <path
         id="path14568"
         style="fill:#ffffff;fill-opacity:1;fill-rule:evenodd;stroke:none;stroke-width:1px;stroke-linecap:butt;stroke-linejoin:miter;stroke-opacity:1;display:inline"
         d="M 193.81687,583.05858 C 252.06488,581.69625 244.5642,572.55581 283.19961,573.7363 C 263.39108,579.35366 216.30568,586.34532 193.81687,583.05858 z " />
      <path
         id="path14570"
         style="fill:#ffffff;fill-opacity:1;fill-rule:evenodd;stroke:none;stroke-width:1px;stroke-linecap:butt;stroke-linejoin:miter;stroke-opacity:1;display:inline"
         d="M 256.10961,628.49635 C 331.9119,626.65019 322.15073,614.26351 372.42975,615.86326 C 346.6515,623.47563 285.3759,632.95037 256.10961,628.49635 z " />
      <path
         id="path14572"
         style="fill:#ffffff;fill-opacity:1;fill-rule:evenodd;stroke:none;stroke-width:1px;stroke-linecap:butt;stroke-linejoin:miter;stroke-opacity:1;display:inline"
         d="M 285.79066,610.57782 C 361.15332,602.38317 350.89457,597.76104 401.00597,593.59572 C 354.61113,606.03922 315.11403,609.73754 285.79066,610.57782 z " />
      <path
         id="path14574"
         style="fill:#ffffff;fill-opacity:1;fill-rule:evenodd;stroke:none;stroke-width:1px;stroke-linecap:butt;stroke-linejoin:miter;stroke-opacity:1;display:inline"
         d="M 107.39271,515.69599 C 183.195,513.84983 147.05762,496.69299 223.71285,503.0629 C 170.1554,500.01255 176.22331,517.62463 107.39271,515.69599 z " />
      <path
         id="path14576"
         style="fill:#ffffff;fill-opacity:1;fill-rule:evenodd;stroke:none;stroke-width:1px;stroke-linecap:butt;stroke-linejoin:miter;stroke-opacity:1;display:inline"
         d="M 250.77826,523.83333 C 326.58055,521.98717 316.81938,509.60049 367.0984,511.20024 C 337.39178,512.63946 301.36999,527.72615 250.77826,523.83333 z " />
      <path
         id="path14578"
         style="fill:#ffffff;fill-opacity:1;fill-rule:evenodd;stroke:none;stroke-width:1px;stroke-linecap:butt;stroke-linejoin:miter;stroke-opacity:1;display:inline"
         d="M 373.96075,512.6094 C 387.1897,507.39606 476.7602,496.69297 489.1585,506.43006 C 465.06384,501.69612 408.2778,507.80369 373.96075,512.6094 z " />
      <path
         id="path14580"
         style="fill:#ffffff;fill-opacity:1;fill-rule:evenodd;stroke:none;stroke-width:1px;stroke-linecap:butt;stroke-linejoin:miter;stroke-opacity:1;display:inline"
         d="M 319.80534,531.77281 C 381.57773,542.27296 421.2018,511.92801 455.76734,524.75168 C 422.41294,516.36997 361.13734,546.32836 319.80534,531.77281 z " />
      <path
         id="path14582"
         style="fill:#ffffff;fill-opacity:1;fill-rule:evenodd;stroke:none;stroke-width:1px;stroke-linecap:butt;stroke-linejoin:miter;stroke-opacity:1;display:inline"
         d="M 220.19308,607.18066 C 295.99537,605.3345 259.85799,588.17766 336.51322,594.54757 C 282.95577,591.49722 289.02368,609.1093 220.19308,607.18066 z " />
      <path
         id="path14584"
         style="fill:#ffffff;fill-opacity:1;fill-rule:evenodd;stroke:none;stroke-width:1px;stroke-linecap:butt;stroke-linejoin:miter;stroke-opacity:1;display:inline"
         d="M 318.96355,578.52124 C 394.76584,576.67508 385.00467,564.2884 435.28369,565.88815 C 405.57707,567.32737 369.55528,582.41406 318.96355,578.52124 z " />
      <path
         id="path14586"
         style="fill:#ffffff;fill-opacity:1;fill-rule:evenodd;stroke:none;stroke-width:1px;stroke-linecap:butt;stroke-linejoin:miter;stroke-opacity:1;display:inline"
         d="M 276.73356,564.23436 C 352.53585,562.3882 351.47322,560.10305 395.01788,545.14752 C 374.0098,561.45843 305.99985,568.68838 276.73356,564.23436 z " />
    </g>
    <path
       id="path1411"
       style="fill:none;fill-opacity:1;fill-rule:evenodd;stroke:#000000;stroke-width:3.00000048;stroke-linecap:butt;stroke-linejoin:miter;stroke-miterlimit:4;stroke-dasharray:none;stroke-opacity:1"
       d="M 299.99999,658.5 C 299.99999,658.5 1.5000002,546.17964 1.5000002,260.728 C 1.5000002,-24.72361 1.5000002,2.1762218 1.5000002,2.1762218 L 598.50002,2.1762218 L 598.50002,260.728 C 598.50002,546.17964 299.99999,658.5 299.99999,658.5 z " />
    <path
       id="path2875"
       style="fill:url(#radialGradient2276);fill-opacity:1;fill-rule:evenodd;stroke:none;stroke-width:1px;stroke-linecap:butt;stroke-linejoin:miter;stroke-opacity:1"
       d="M 298.49998,660 C 298.49998,660 596.99998,547.67969 596.99998,262.22817 C 596.99998,-23.223331 596.99998,3.6764893 596.99998,3.6764893 L 0,3.6764893 L 0,262.22817 C 0,547.67969 298.49998,660 298.49998,660 z " />
  </g>
</svg>
